<svg width="1213" height="541" viewBox="0 0 1213 541" fill="none" xmlns="http://www.w3.org/2000/svg">
<g opacity="0.1" clip-path="url(#clip0_0_32381)">
<path d="M606.333 -277.806C806.942 -277.806 969.473 -115.275 969.473 85.3335C969.473 285.942 806.942 448.473 606.333 448.473C405.725 448.826 243.194 286.294 243.194 85.3335C243.194 -115.275 405.725 -277.806 606.333 -277.806ZM606.333 -281.332C404.315 -281.332 239.668 -116.685 239.668 85.3335C239.668 287.705 404.315 451.999 606.333 451.999C808.705 451.999 972.999 287.352 972.999 85.3335C973.352 -116.685 808.705 -281.332 606.333 -281.332Z" fill="#0044EB"/>
<path d="M791.776 -222.808C794.949 -221.751 796.359 -218.578 799.532 -217.167C798.122 -218.93 798.122 -218.93 797.769 -219.988C798.474 -219.635 807.288 -215.757 808.346 -213.642C807.993 -213.642 807.288 -213.994 806.936 -213.994C811.872 -210.821 812.929 -210.116 813.634 -210.116C813.634 -210.116 813.987 -210.469 814.34 -210.469C816.455 -209.411 816.807 -209.058 817.513 -208.353C817.16 -208.706 816.455 -208.706 816.102 -209.058C816.808 -208.353 817.513 -207.648 824.916 -203.065C835.141 -197.071 850.654 -183.674 852.064 -181.206C846.423 -183.674 842.545 -188.61 837.256 -191.783C847.48 -183.674 855.942 -173.802 866.166 -165.693C866.166 -165.693 866.519 -166.046 866.871 -166.046C864.403 -168.514 861.583 -170.277 859.82 -173.097C860.878 -172.392 861.936 -171.687 862.993 -170.982C857 -177.328 856.647 -177.68 855.942 -178.385C856.647 -178.033 857 -177.328 857.705 -176.975L872.16 -162.168C885.557 -147.712 886.262 -147.007 908.121 -117.04C913.057 -109.283 919.403 -98.7062 923.987 -90.9498C920.461 -95.8857 916.23 -99.7639 910.589 -103.29C916.583 -99.4114 920.461 -95.5332 923.987 -90.9498L936.326 -66.623C941.967 -54.6358 943.73 -50.4051 947.961 -38.418C948.313 -36.6551 948.313 -36.6552 959.948 2.12677C959.948 2.12677 959.948 1.77422 959.595 1.77422C964.179 29.9792 964.531 31.3895 966.999 39.4984C967.352 41.9664 967.704 44.7869 968.41 47.96C969.467 58.1843 969.82 71.5817 970.525 81.806C970.525 91.6778 969.82 104.723 969.467 114.947C969.467 114.242 969.467 113.889 969.467 113.184C968.762 125.171 968.057 129.755 967.704 133.28L966.647 141.037L966.294 142.094C966.294 143.152 965.942 144.562 965.589 145.62C965.589 144.915 965.942 144.21 965.942 143.505C965.589 146.325 965.589 146.325 955.717 167.126C955.365 167.126 955.012 166.774 954.66 166.774C953.954 166.774 953.249 167.126 950.429 168.184C949.371 134.69 958.89 101.197 949.724 68.056C949.371 69.1137 948.666 70.8765 947.608 71.5817C946.551 65.2355 946.551 65.2355 945.846 63.8253L949.724 107.896C951.134 121.998 948.313 135.748 948.666 149.851C948.666 155.139 950.076 160.428 949.371 166.069C947.608 180.876 947.608 180.876 948.666 181.934C950.429 181.581 951.487 181.229 952.192 181.229C952.897 181.229 953.249 181.229 954.307 181.581C951.487 190.748 940.91 214.017 932.801 223.184C927.512 228.472 910.589 247.511 905.301 259.85C903.891 263.023 891.903 287.703 878.859 300.042C873.57 305.331 866.166 307.799 860.525 312.735C855.589 317.318 853.121 323.312 848.538 327.895L828.442 343.76L812.577 355.042C809.404 357.158 800.237 363.504 791.423 363.504C789.66 363.504 788.25 363.151 786.487 362.799C788.602 357.51 790.013 356.453 792.128 354.337C795.301 351.164 796.006 350.459 815.75 314.85C821.038 305.684 821.391 294.754 827.032 285.94C833.025 276.421 841.487 268.664 846.07 258.087C855.942 235.171 853.474 224.594 851.711 216.838C850.654 211.902 850.654 211.902 857.705 194.979C858.763 195.331 860.173 195.331 861.23 195.684C886.262 200.62 903.185 205.203 914.82 210.844C902.833 204.85 886.615 200.62 861.23 195.684C860.173 195.331 858.763 195.331 857.705 194.979C860.173 188.985 860.173 188.985 858.057 182.639C854.884 181.581 851.359 182.992 848.538 180.524C845.718 178.056 847.833 173.472 844.66 171.004C844.307 170.652 843.602 170.299 843.25 170.299C841.134 169.947 839.019 169.947 837.256 169.947C823.154 169.947 809.756 174.53 795.654 175.94C792.128 175.94 775.558 160.075 773.442 155.492C768.154 144.21 761.808 133.633 757.224 121.998C754.051 114.242 763.923 111.069 763.571 104.37C763.571 96.2611 757.929 89.5624 758.635 81.4534C758.635 81.4534 776.263 50.7805 778.731 46.9023C779.436 45.492 786.135 40.5561 790.013 38.4407C794.243 36.3254 794.243 36.3254 795.301 20.46C795.301 19.0498 794.949 16.9344 795.654 15.5242C798.474 11.2934 804.115 11.646 806.936 7.76778C809.404 4.59471 807.641 0.363953 810.109 -2.45654C810.461 -2.80911 811.167 -3.51424 811.872 -3.86681C811.872 -3.86681 811.872 -3.86678 812.577 -3.51422C815.397 -0.341156 816.807 0.716507 818.57 0.716507C819.275 0.716507 820.333 0.363953 821.391 0.363953C821.743 0.363953 821.743 0.363953 823.506 0.363953C825.269 1.06908 827.032 1.42163 828.795 1.42163C837.609 1.42163 845.718 -5.27704 854.532 -5.27704C856.647 -5.27704 858.41 -4.92448 860.525 -4.21936C861.23 -5.27705 862.288 -6.33475 862.993 -7.39243C868.282 -5.98218 870.75 -5.62962 872.512 -5.62962C873.923 -5.62962 874.628 -5.98216 875.685 -7.03984C877.448 -5.98216 878.153 -5.62962 880.974 -3.86681C882.032 10.9408 882.032 10.9408 880.621 13.4088C879.916 14.4665 879.211 16.2293 879.916 17.287C882.032 20.46 909.884 45.8446 912.352 47.96C912.705 47.6074 913.41 47.6074 914.115 47.2548C915.878 43.024 913.762 38.0882 916.23 33.8575C928.922 34.21 927.865 51.8381 939.852 52.5433C940.557 51.8381 941.967 51.133 943.025 51.133C944.083 54.6587 944.788 55.3638 948.313 55.7163C951.134 49.0176 950.781 45.1395 949.371 19.7549C948.313 19.4024 947.256 18.3447 946.551 17.6395C946.551 18.6972 946.198 20.1075 945.846 21.1652C942.672 19.4024 941.967 15.5242 939.147 13.4088C939.147 14.1139 939.147 14.819 939.147 15.1716C938.794 15.5242 938.089 16.2293 937.737 16.5818C929.628 9.53059 927.865 -2.80911 926.807 -9.5078C926.455 -9.5078 925.749 -9.86037 925.044 -9.86037C925.044 -10.918 925.044 -12.6809 925.397 -13.7386C927.512 -14.7962 930.333 -13.7386 932.448 -15.5014C931.743 -16.2065 931.038 -17.6168 930.685 -18.3219C931.743 -17.9693 933.153 -17.6167 934.211 -17.2642C934.916 -17.9693 935.621 -19.3796 935.621 -20.4373C936.326 -20.7898 937.031 -20.7898 937.737 -20.7898C944.435 -20.7898 944.788 -10.5655 949.724 -7.03984C950.076 -7.39241 950.781 -7.745 951.134 -7.745C951.487 -21.1424 941.262 -29.9565 936.679 -41.2385C937.031 -41.591 937.384 -42.2962 937.737 -42.6487C936.326 -48.2897 936.326 -48.2897 935.269 -49.7C935.621 -50.0526 935.974 -50.7577 936.326 -51.4628C935.621 -53.2256 935.269 -54.2833 933.506 -54.2833C933.153 -54.2833 932.801 -54.2833 932.096 -53.9307C930.333 -48.6423 939.499 -42.2962 933.506 -38.418C932.096 -40.5333 931.39 -43.0013 929.628 -44.7641C930.333 -48.2897 930.333 -48.2897 929.628 -50.7577C927.865 -51.8154 927.16 -52.5205 925.397 -54.2833C925.749 -54.6358 926.102 -55.341 926.102 -56.0461C925.397 -56.3987 924.692 -56.3987 923.987 -56.3987C923.634 -56.3987 922.929 -56.3987 922.576 -56.0461C920.814 -43.0013 930.333 -31.7193 928.57 -18.6744C927.865 -18.6744 927.16 -18.6744 926.807 -18.6744C926.455 -17.6167 925.749 -16.2065 925.397 -15.1488C924.339 -19.3796 918.698 -22.5526 916.23 -23.2578C914.82 -22.2001 914.82 -22.2001 917.641 -7.745C918.698 -3.16167 920.461 1.06908 920.461 5.6524C920.461 6.71008 920.461 8.12033 920.108 9.53059L911.647 -9.86037C903.538 -32.777 903.538 -32.777 903.538 -32.777L876.743 -64.1551C875.686 -63.8025 874.628 -62.7448 873.923 -62.0397C885.557 -38.0654 889.083 -36.3026 893.666 -34.5398C893.666 -33.8346 893.314 -33.1295 893.314 -32.777C902.833 -21.4949 902.833 -21.4949 903.185 -18.6744C902.48 -19.7321 901.423 -20.7898 900.717 -21.8475C900.012 -21.8475 899.307 -21.4949 898.955 -21.4949C898.955 -19.3796 898.955 -19.3796 900.717 -13.386C899.307 -11.2706 898.602 -8.4501 897.192 -6.33473C896.839 -6.33473 896.134 -6.33473 895.429 -6.68729C894.724 -3.51422 896.839 -0.341187 895.782 2.83188C895.782 2.83188 888.73 -3.51424 886.262 -7.39243C897.897 -9.15524 898.955 -9.15523 896.839 -15.8539C894.019 -24.668 866.519 -56.7512 866.166 -56.7512C864.756 -58.1615 863.346 -58.5141 862.288 -58.5141C859.468 -58.5141 857.705 -55.341 855.237 -51.4628C852.416 -51.4628 850.301 -54.2833 847.48 -54.2833C846.775 -54.2833 845.718 -53.9307 845.013 -53.2256C843.955 -52.5205 843.955 -52.5205 843.955 -41.9436C835.846 -38.7705 835.493 -38.7705 832.32 -25.7257C835.141 -21.1424 834.083 -14.0911 828.442 -13.386L808.699 -6.68729C808.699 -6.68729 808.699 -6.6873 807.288 -12.6809C805.525 -13.0334 804.115 -13.386 802.352 -13.386C800.237 -13.386 797.769 -13.0334 793.538 -12.6809C793.891 -13.7386 793.891 -13.7386 794.949 -23.6103C790.718 -24.668 789.308 -57.4564 789.308 -57.8089C788.602 -58.8666 787.545 -59.9243 786.84 -60.982C798.827 -59.5717 810.814 -56.0461 823.154 -55.341C823.154 -55.6936 827.384 -81.7832 801.295 -89.187C801.647 -89.5396 802.352 -89.8922 802.705 -90.2447C801.647 -91.3024 800.237 -92.3601 799.179 -93.4178C799.532 -93.7704 799.884 -94.4755 799.884 -95.1806C804.115 -95.1806 804.115 -95.1806 806.936 -93.4178C807.993 -93.7704 809.756 -94.1229 810.814 -94.828C810.814 -95.5332 811.166 -96.2383 811.519 -96.5909C810.814 -97.6485 809.756 -99.0588 809.404 -100.116C811.872 -98.3537 812.577 -97.6485 818.218 -97.296C818.57 -98.3537 818.923 -100.116 818.923 -101.174C820.333 -101.527 821.743 -102.584 823.154 -103.29C821.038 -108.578 821.038 -108.578 821.038 -108.578C823.154 -109.283 823.506 -109.636 825.622 -109.636C826.327 -109.636 827.384 -109.636 828.442 -109.636C828.795 -109.988 829.147 -110.693 829.5 -111.398C827.384 -116.687 827.032 -119.86 826.679 -121.27C827.737 -122.328 828.09 -122.681 830.557 -122.681C831.263 -122.681 832.32 -122.681 834.083 -122.681C834.436 -123.033 834.788 -123.738 835.141 -124.091C836.198 -124.091 837.609 -124.443 838.666 -124.796C840.077 -125.148 840.429 -125.148 840.429 -125.501C840.429 -125.501 840.429 -125.854 838.314 -128.322C833.025 -134.315 825.974 -147.007 825.269 -148.418C824.211 -150.886 829.5 -151.238 830.205 -151.238C832.32 -150.886 834.788 -143.482 834.788 -141.719C834.436 -137.488 838.314 -132.552 841.134 -129.027C844.66 -124.796 845.365 -124.443 846.423 -124.443H846.775C847.128 -124.443 847.128 -124.443 847.48 -124.443C851.359 -124.443 853.474 -122.681 854.179 -122.328L848.891 -123.386C852.064 -122.681 854.884 -121.975 857 -120.565C857.352 -120.918 858.057 -121.27 858.41 -121.623C858.41 -122.328 858.41 -122.328 860.173 -122.328C861.583 -122.328 864.404 -121.975 869.339 -121.623C869.339 -121.623 868.987 -121.975 868.987 -122.328C869.339 -123.033 869.339 -123.738 869.692 -124.443C870.044 -124.443 870.044 -124.443 870.397 -124.443C870.75 -124.443 871.455 -124.443 872.512 -124.091C872.865 -125.854 869.692 -130.084 868.987 -130.789C868.634 -131.495 863.698 -139.956 863.698 -139.956C863.698 -140.309 864.051 -140.309 864.051 -140.661H864.403C868.282 -140.661 868.634 -135.373 872.512 -135.02C869.339 -141.014 863.698 -145.245 859.82 -150.533C863.346 -150.18 866.871 -148.418 870.397 -147.712C870.044 -148.418 869.339 -149.123 868.987 -149.828C869.339 -149.828 869.339 -150.18 869.692 -150.18C870.75 -149.828 871.455 -149.123 872.512 -149.123C866.519 -154.764 857.352 -153.706 851.711 -159.347C845.013 -165.693 845.013 -165.693 837.609 -181.911C837.961 -181.911 837.961 -181.911 838.314 -181.911C837.609 -183.674 828.442 -190.02 825.622 -190.725C825.622 -190.725 825.269 -190.373 825.269 -190.02C825.269 -189.667 825.622 -189.315 825.622 -188.962C825.974 -188.61 825.974 -188.61 833.378 -180.853C836.198 -178.033 833.025 -173.802 835.141 -170.982C840.077 -162.873 840.077 -162.873 843.955 -160.405C849.243 -156.879 849.596 -156.174 849.596 -154.411C847.48 -152.648 846.423 -151.591 850.654 -143.834C852.416 -140.309 852.064 -133.257 851.711 -132.2C848.891 -132.2 847.128 -134.668 845.718 -137.488C842.192 -143.482 823.506 -161.815 822.801 -162.52C823.506 -159.7 825.269 -154.411 822.096 -152.648C821.391 -152.296 820.333 -151.943 819.628 -151.943C810.109 -151.943 800.59 -174.155 800.59 -174.507C799.885 -176.623 799.884 -176.975 801.295 -178.033C805.526 -181.206 805.525 -181.206 806.583 -188.61C806.583 -188.962 806.936 -191.783 801.295 -199.892C801.295 -199.892 793.891 -212.584 793.891 -215.052C793.538 -216.462 793.538 -216.462 794.949 -218.93C793.891 -220.693 792.481 -221.398 791.776 -222.808ZM966.647 112.126C966.999 110.364 966.999 110.364 967.352 106.485C966.999 119.178 966.999 119.178 967.704 120.588C968.057 118.825 968.41 118.12 969.115 113.184C969.467 101.55 968.762 81.4534 966.999 78.9855C966.294 82.1585 965.942 84.6265 966.647 112.126ZM788.602 -225.629L790.013 -222.103C790.365 -221.046 791.07 -220.34 791.776 -219.635C792.128 -219.283 792.128 -219.283 792.481 -218.93C791.776 -217.167 791.423 -216.462 791.776 -215.052C792.128 -212.232 799.532 -199.539 799.532 -199.187C804.468 -191.43 804.468 -188.962 804.468 -188.962C803.41 -181.911 803.41 -181.911 799.884 -179.443C797.417 -177.68 797.769 -175.918 798.474 -173.802C798.474 -173.45 808.346 -150.18 819.275 -150.18C820.333 -150.18 821.391 -150.533 822.801 -150.886C825.269 -151.943 825.974 -154.411 825.974 -156.879C827.384 -155.469 828.795 -154.059 830.205 -152.296C828.442 -152.296 825.269 -151.943 824.211 -150.18C823.506 -149.475 823.506 -148.418 823.859 -147.36C824.564 -145.95 831.968 -132.905 837.256 -126.911C837.609 -126.559 837.609 -126.206 837.961 -126.206C836.904 -126.206 835.846 -125.854 835.141 -125.854H834.436L834.083 -125.148L833.378 -124.443C832.32 -124.443 831.615 -124.443 830.91 -124.443C827.737 -124.443 827.032 -124.091 825.622 -122.328L824.916 -121.623V-120.565C825.269 -119.155 825.622 -116.334 827.384 -111.046C826.679 -111.046 825.974 -111.046 825.622 -111.046C823.154 -111.046 822.449 -110.693 820.333 -109.988L818.923 -109.636V-108.225C818.923 -107.873 818.923 -107.873 820.686 -103.642C819.981 -103.29 818.923 -102.937 818.218 -102.584L817.16 -102.232V-100.822C817.16 -100.116 817.16 -99.4114 816.807 -98.7062C812.929 -99.0588 812.224 -99.4114 810.109 -101.174L803.763 -106.11L807.641 -99.0588C807.993 -98.3537 808.699 -97.296 809.404 -96.2383C808.699 -95.8857 807.993 -95.5332 807.288 -95.5332C804.82 -96.9434 804.115 -97.296 799.884 -97.296H798.827L798.474 -96.2383L798.122 -95.5332C797.769 -95.1806 797.769 -94.828 797.769 -94.4755L797.417 -93.4178L798.474 -92.7127L800.59 -90.9498L797.769 -89.187L801.295 -88.1293C822.449 -82.1358 822.801 -63.4499 822.096 -57.8089C816.102 -58.5141 810.461 -59.5717 804.468 -60.6294C798.827 -61.6871 793.186 -62.7448 787.545 -63.4499L784.019 -63.8025L785.782 -60.982C786.487 -59.9243 787.192 -58.8666 787.897 -57.8089C787.897 -53.2256 788.955 -29.2513 793.186 -23.6103C792.128 -14.7962 792.128 -14.4437 792.128 -13.7386L791.423 -11.2706L793.891 -11.6232C798.122 -11.9757 800.942 -12.3283 802.705 -12.3283C804.115 -12.3283 804.82 -12.3283 806.231 -11.9757C807.288 -7.03986 807.288 -7.03986 807.641 -6.68729L808.346 -5.62962L809.756 -5.98218L829.5 -12.6809C831.968 -13.0334 834.083 -14.7962 835.493 -16.9116C836.904 -19.7321 836.551 -23.6103 835.141 -26.7834C837.961 -38.418 837.961 -38.418 845.365 -41.2385L846.423 -41.591V-42.6487C846.423 -48.6423 846.423 -51.8154 846.775 -52.5205C847.48 -53.2256 847.833 -53.2256 848.186 -53.2256C848.891 -53.2256 849.948 -52.5205 851.006 -52.1679C852.416 -51.4628 853.827 -50.4051 855.942 -50.4051H857L857.352 -51.4628C859.115 -54.6359 860.878 -57.4564 862.641 -57.4564C863.346 -57.4564 864.403 -57.1038 865.461 -56.0461C866.871 -54.2833 893.314 -23.9629 895.782 -15.8539C896.134 -14.7962 896.839 -12.3283 896.487 -11.6232C895.782 -10.5655 891.903 -10.2129 886.615 -9.5078L884.147 -9.15524L884.852 -6.33473C887.32 -2.45654 894.371 4.24214 895.076 4.24214L896.839 5.29985L897.544 3.18445C898.25 1.06906 897.897 -1.0463 897.544 -2.8091C897.544 -3.51422 897.192 -4.21935 897.192 -4.92447H898.25L898.955 -5.98218C900.012 -7.39243 900.365 -8.80267 901.07 -9.86037C901.423 -10.918 902.128 -11.9757 902.48 -13.0334L902.833 -13.7386L902.48 -14.4437C901.775 -16.9116 901.423 -18.3219 901.07 -19.3795C901.423 -19.027 901.423 -18.6744 901.775 -18.3219L906.359 -12.3283L904.948 -20.0847C904.243 -23.2578 904.243 -23.2578 895.076 -34.1872C895.076 -34.5398 895.076 -34.8923 895.429 -35.2449L895.782 -36.6551L894.371 -37.3603C890.493 -39.1231 886.968 -40.5333 876.038 -63.0974C876.038 -63.0974 876.038 -63.0974 876.391 -63.4499L901.775 -33.4821C902.128 -32.7769 903.538 -28.1936 909.532 -10.9181L917.993 8.47289L920.461 14.1139L921.166 7.76778C921.166 6.71008 921.519 4.94728 921.519 3.88959C921.519 0.716522 920.814 -2.45656 919.756 -5.62962C919.403 -7.03987 919.051 -8.4501 918.698 -9.86037C917.288 -16.9116 916.583 -21.1424 916.23 -22.9052C918.698 -21.8475 921.871 -19.3796 922.929 -16.5591L923.281 -15.5014C922.929 -14.0911 922.929 -12.3283 922.929 -11.2706V-9.86037L923.987 -9.5078H924.692C925.749 -2.45654 927.512 9.53059 935.974 16.5818L937.384 17.6395L938.442 16.5818L939.147 15.8767C939.499 16.2293 939.499 16.5818 939.852 16.9344C940.91 18.6972 942.32 20.46 944.083 21.8703L945.846 22.928L946.551 20.8126C946.551 20.46 946.903 20.1075 946.903 19.7549C947.961 42.3189 948.313 47.2548 946.198 52.8958C944.788 52.5433 944.435 52.1907 943.73 49.7228L943.378 48.3125H941.967C940.91 48.3125 939.499 48.6651 938.442 49.7228C933.858 49.0176 931.743 45.492 928.923 41.2613C926.102 36.6779 922.576 31.0369 915.173 31.0369H914.115L913.762 32.0946C912.352 34.9151 912.352 37.7356 912.352 40.2036C912.352 41.9664 912.352 43.3766 911.999 45.1394C906.711 40.5561 882.384 18.3447 880.621 15.8767C880.621 15.5242 880.974 14.819 881.327 13.7613C883.089 10.9408 883.089 10.5883 882.032 -4.57191V-5.27704L881.327 -5.62962C878.153 -7.745 877.448 -8.09756 875.685 -9.15524L874.628 -9.86037L873.57 -9.15524C872.512 -8.45012 872.16 -8.09755 871.455 -8.09755C870.044 -8.09755 867.577 -8.80267 862.288 -9.86037L861.23 -10.2129L860.525 -9.5078C859.82 -8.80267 859.115 -8.09756 858.41 -7.39243C856.647 -7.745 854.884 -8.09755 853.121 -8.09755C848.186 -8.09755 843.955 -6.33473 839.724 -4.57191C835.493 -2.8091 831.615 -1.39885 827.384 -1.39885C825.622 -1.39885 824.211 -1.75142 822.449 -2.10399H822.096H821.743C820.333 -2.10399 819.981 -2.10399 819.628 -2.10399H819.275H818.923C817.865 -1.75142 817.16 -1.7514 816.455 -1.7514C815.397 -1.7514 814.34 -2.10397 811.872 -5.27704V-5.62962H811.519C810.461 -6.33475 810.461 -6.33473 809.756 -6.33473H810.814L810.461 -5.98218L810.109 -5.62962C809.756 -5.27705 809.051 -4.92448 808.699 -4.21936C807.288 -2.45654 806.936 0.0113983 806.936 2.12677C806.936 3.88959 806.583 5.29982 805.878 6.35751C804.82 7.76776 803.058 8.82545 800.942 9.53059C798.474 10.5883 796.006 11.646 794.243 14.4665C793.186 15.8767 793.538 17.6395 793.538 19.0498C793.538 19.4023 793.538 19.7549 793.538 20.1075C792.833 34.9151 792.833 34.9151 789.308 36.6779C785.429 38.4407 778.378 43.7292 777.32 45.8446C769.212 58.8894 757.224 80.7483 757.224 81.1009C756.872 85.6842 758.282 89.9149 759.692 94.1457C760.75 97.6713 761.808 100.844 762.16 104.37C762.16 106.485 760.75 108.601 758.987 110.716C756.519 113.537 753.699 117.415 755.814 122.703C758.987 130.46 762.513 137.864 766.391 144.915C768.154 148.793 770.269 152.319 772.032 156.197C774.147 160.428 791.07 177.703 796.006 177.703C802 176.998 807.993 175.94 813.634 174.883C821.391 173.472 829.5 171.71 837.256 171.71C839.372 171.71 841.134 171.71 843.25 172.062C843.25 172.062 843.602 172.062 843.955 172.415C845.013 173.12 845.013 174.177 845.365 175.94C845.718 177.703 845.718 180.171 847.833 181.581C849.948 183.344 852.769 183.697 854.884 183.697C855.589 183.697 856.647 183.697 857.352 184.049C858.762 188.633 858.763 188.985 857 193.568L856.647 194.274L855.942 196.389C849.596 211.549 849.243 212.254 850.654 217.19C852.416 224.594 854.532 234.818 845.013 257.382C842.545 263.729 838.314 268.664 834.083 274.305C831.263 277.831 828.442 281.357 825.974 285.235C822.801 290.171 821.391 295.459 819.628 300.748C818.218 305.684 816.808 309.914 814.34 314.145C794.596 349.401 793.891 350.106 791.07 353.279C788.955 355.395 787.545 356.805 785.077 362.446L784.372 364.209L786.135 364.914C787.897 365.267 789.66 365.619 791.423 365.619C800.942 365.619 810.109 359.273 813.634 356.805L829.5 345.523L849.596 329.658C851.711 327.542 853.474 324.722 855.237 322.254C857.352 319.433 859.115 316.613 861.583 314.498C864.051 312.03 867.224 310.267 870.397 308.504C873.57 306.389 877.096 304.626 879.916 301.805C893.314 289.113 905.301 264.081 906.711 260.908C911.647 248.921 928.57 230.235 933.858 224.947C942.32 215.78 952.897 192.158 955.717 182.639L956.07 180.876L954.307 180.171C953.249 179.818 952.544 179.466 951.487 179.466C950.781 179.466 950.076 179.466 949.371 179.819C949.371 178.408 949.724 175.235 950.429 169.947L951.134 169.594C953.249 168.536 953.954 168.184 954.307 168.184C954.307 168.184 954.66 168.184 955.012 168.184L956.422 168.536L957.128 167.126C964.531 151.261 966.294 147.383 966.999 145.267C967.352 144.21 967.352 142.799 967.704 141.389L968.057 140.331L969.115 132.575C969.467 129.049 970.172 124.819 970.877 114.242L971.23 110.011C971.583 100.492 972.288 89.5624 972.288 81.1009C972.288 78.2804 971.935 75.4599 971.935 72.6394C971.583 64.1779 970.877 54.6586 970.172 47.2548L969.82 45.1394L968.762 38.7933C966.647 32.0946 966.294 30.3318 963.121 11.646L966.294 17.287L961.358 1.42163C955.717 -17.2642 952.897 -26.7834 951.487 -32.0718L952.544 -30.6616L949.724 -38.7705C945.493 -51.1102 943.73 -54.9884 938.089 -67.3281L925.749 -91.655C924.339 -93.7704 922.929 -96.5909 921.166 -99.0588C917.288 -105.405 913.057 -112.456 909.532 -117.745C887.673 -147.712 887.32 -148.418 873.57 -162.873L859.115 -177.328C858.762 -177.68 858.057 -178.385 857.705 -178.738L853.474 -182.264C849.948 -186.494 835.846 -198.482 826.679 -203.77C825.269 -204.828 823.859 -205.533 823.154 -205.885L819.628 -208.706C818.57 -209.411 818.218 -209.764 816.102 -211.174L815.045 -211.879L814.34 -211.526C813.634 -211.879 812.577 -212.584 810.814 -213.642C809.404 -216.462 799.179 -220.693 799.179 -221.046L796.711 -221.751C795.654 -222.456 794.949 -223.161 793.538 -223.514L788.602 -225.629ZM853.121 -130.084L853.474 -131.142C854.532 -132.905 854.532 -140.661 852.416 -144.539C848.891 -150.886 849.596 -151.591 851.006 -153.001L851.711 -153.353V-154.059C851.711 -156.879 851.006 -157.937 845.365 -161.815C841.839 -163.93 841.839 -163.93 836.904 -172.039C836.198 -173.097 836.551 -174.155 836.551 -175.565C836.904 -177.68 837.256 -180.148 835.141 -182.264C834.083 -183.321 833.025 -184.379 832.32 -185.084C833.731 -184.026 834.788 -183.321 835.846 -182.616L836.551 -180.853C843.602 -164.636 843.955 -164.283 851.006 -157.937C854.179 -154.764 858.41 -153.706 862.288 -152.296C862.993 -151.943 863.698 -151.943 864.403 -151.591C863.346 -151.943 862.288 -152.296 860.878 -152.296L856.647 -152.648L859.115 -149.475C860.878 -147.36 862.641 -145.245 864.403 -143.129C864.756 -142.777 865.109 -142.424 865.461 -142.071H865.109H864.756H863.698L863.346 -141.366C863.346 -141.366 862.993 -141.014 862.993 -140.661L862.288 -139.604L862.993 -138.546L863.346 -137.841C867.577 -130.437 867.929 -129.379 868.282 -129.027C869.339 -127.616 870.397 -126.206 870.75 -125.501C870.397 -125.501 870.045 -125.501 870.045 -125.501L869.339 -125.148L868.987 -124.443C868.634 -124.091 868.634 -123.386 868.634 -123.033C868.634 -123.033 868.634 -123.033 868.634 -122.681C864.756 -123.033 862.288 -123.033 861.23 -123.033C860.173 -123.033 858.41 -123.033 858.057 -121.623C858.057 -121.623 857.705 -121.623 857.705 -121.975L856.295 -123.033C855.237 -123.738 852.769 -125.501 848.538 -125.501C848.186 -125.501 848.186 -125.501 847.833 -125.501H847.48C847.128 -125.501 846.423 -126.206 843.25 -129.379C839.372 -133.963 837.256 -137.841 837.256 -141.014C837.256 -141.719 836.551 -144.892 835.493 -147.36C839.724 -142.777 843.602 -138.193 845.013 -136.078C846.775 -133.257 848.891 -129.732 852.769 -129.732L853.121 -130.084ZM930.333 -20.0847C931.038 -26.4308 928.923 -32.4244 927.16 -38.418C925.749 -43.3538 923.987 -48.2897 923.987 -53.2256C925.397 -51.4628 926.102 -51.1102 927.865 -50.0526C928.217 -48.6423 928.217 -48.2897 927.512 -45.4692V-44.7641L928.217 -44.059C928.923 -43.0013 929.628 -41.9436 930.333 -40.8859C930.685 -39.8282 931.39 -38.7705 932.096 -37.7128L933.153 -36.3026L934.564 -37.0077C935.269 -37.3603 935.974 -37.7128 936.326 -38.418C937.737 -35.2449 939.852 -32.0718 941.615 -28.8988C945.493 -22.5526 949.371 -16.5591 949.724 -9.15524C948.666 -10.5655 947.961 -12.3283 946.903 -14.0911C945.14 -17.9693 943.025 -22.2001 938.089 -22.2001C937.384 -22.2001 936.326 -22.2001 935.621 -21.8475L934.564 -21.4949V-20.0847C934.564 -19.7321 934.564 -19.3796 934.211 -18.6744C933.506 -19.027 932.448 -19.027 931.743 -19.3795L930.333 -20.0847ZM933.858 -51.1102C933.858 -51.4628 933.506 -52.1679 933.506 -52.5205H933.858C933.858 -52.5205 934.211 -52.1679 934.211 -51.8154V-51.4628L933.858 -51.1102ZM927.865 -17.2642C928.217 -17.2642 928.217 -17.2642 928.57 -17.2642H928.923C928.923 -16.9116 929.275 -16.5591 929.628 -15.8539C929.275 -15.8539 928.923 -15.8539 928.217 -15.8539C927.865 -15.8539 927.512 -15.8539 927.16 -15.8539C927.16 -16.2065 927.512 -16.5591 927.865 -17.2642ZM947.961 73.6971L948.313 73.3445C948.313 73.3445 948.313 73.3445 948.666 72.9919C951.487 85.6842 951.839 98.729 951.134 111.774C951.134 110.716 951.134 109.306 950.781 108.248L947.961 73.6971Z" fill="#0044EB"/>
<path d="M954.31 -17.9638C955.015 -15.8485 955.72 -13.7331 956.425 -11.6177C960.656 3.18994 961.714 6.71558 964.181 24.6963C963.124 19.7604 962.419 15.1771 961.714 10.2412V10.5938L959.951 2.48482C959.951 2.13225 959.598 1.42712 959.598 1.07456C959.951 2.13225 960.303 3.5425 960.303 4.60019C958.54 -2.80363 958.54 -3.1562 954.31 -17.9638ZM956.073 -18.3164L952.547 -17.2587C956.778 -2.80363 956.778 -2.09849 958.893 5.30533L959.951 10.5938C960.656 15.5297 961.361 20.113 962.419 24.6963V25.0489L965.944 24.3437C963.124 6.363 962.066 2.48482 958.188 -11.9703V-12.3228L956.073 -18.3164Z" fill="#0044EB"/>
<path d="M964.185 25.0479C965.242 30.3363 966.3 35.2722 966.653 40.5606C966.653 40.2081 966.3 39.8555 966.3 39.5029C965.595 33.8619 964.89 28.9261 964.185 25.0479ZM965.948 24.6953L962.422 25.4004C963.127 28.9261 963.48 33.1568 964.185 37.7401L964.537 39.8555V40.2081C964.537 40.5606 964.537 40.9132 964.89 41.2658L968.415 40.5606C968.063 34.9196 967.005 29.6312 965.948 24.6953Z" fill="#0044EB"/>
<path d="M922.926 17.6456C922.926 17.6456 923.279 17.6456 924.689 18.3507C925.747 18.7033 926.804 18.7033 927.862 19.0559C928.215 19.0559 928.567 19.4084 929.272 19.761L932.445 23.6392H932.093C929.625 23.6392 923.631 20.4661 922.926 18.7033C921.868 18.3507 922.221 17.6456 922.926 17.6456ZM922.926 15.8828C921.868 15.8828 921.163 16.5879 920.458 17.293C920.106 17.9982 920.106 19.0559 920.811 20.1136C922.221 22.2289 928.567 25.7546 931.74 25.7546C932.093 25.7546 932.445 25.7546 932.798 25.7546H933.15L934.561 25.0494L934.208 23.9917V23.6392L933.856 22.9341C933.856 22.9341 931.74 20.4661 931.035 19.4084L930.682 19.0559C929.977 18.3507 929.272 17.9982 928.567 17.6456C927.862 17.6456 927.509 17.293 927.157 17.293C926.452 17.293 926.099 17.293 925.747 16.9405C923.279 15.8828 923.279 15.8828 922.926 15.8828Z" fill="#0044EB"/>
<path d="M942.673 27.5128C943.378 27.8654 943.731 28.218 944.083 28.5705C944.436 28.9231 944.788 28.9231 945.141 28.9231C945.494 28.9231 946.199 28.5705 946.551 28.5705C946.551 28.5705 946.904 28.5705 946.904 28.9231C946.904 28.9231 946.904 28.9231 946.904 29.2756C946.904 29.2756 946.551 33.1538 946.199 33.5064C946.199 33.5064 946.199 33.5064 945.846 33.5064C945.493 33.5064 944.083 33.1538 944.083 33.1538C944.083 33.1538 943.731 32.8013 943.026 32.4487C941.968 31.0384 941.263 28.2179 941.968 27.5128C942.32 27.5128 942.32 27.5128 942.673 27.5128ZM942.673 25.75C942.32 25.75 941.615 25.75 940.91 26.8077C939.852 28.218 940.91 32.4487 942.32 33.859C943.026 34.5641 943.731 34.9166 944.083 34.9166C944.436 34.9166 945.493 35.2692 946.199 35.2692C946.551 35.2692 947.256 35.2692 947.609 34.5641C948.314 33.5064 948.667 29.9808 948.667 29.2756V28.9231C948.667 27.5128 947.609 26.8077 947.256 26.8077H946.904H946.551C945.846 26.8077 945.494 26.8077 945.141 27.1603C945.141 27.1603 945.141 27.1603 944.788 26.8077C944.436 26.4551 944.083 26.1026 943.378 25.75C943.378 25.75 943.026 25.75 942.673 25.75Z" fill="#0044EB"/>
<path d="M430.404 121.298C432.871 121.298 435.692 123.766 435.692 124.824C435.692 125.881 434.634 126.234 433.224 126.234C431.814 126.234 430.404 125.881 430.051 125.881C428.993 125.529 427.583 122.356 429.698 121.651C430.051 121.651 430.404 121.298 430.404 121.298ZM430.404 119.535C430.051 119.535 429.698 119.535 429.346 119.535C427.936 120.24 427.23 121.298 427.23 123.061C427.23 124.824 428.288 126.586 429.698 127.292C430.404 127.644 432.166 127.997 433.577 127.997C435.339 127.997 436.397 127.644 437.102 126.939C437.455 126.234 437.807 125.529 437.807 124.824C437.455 122.708 433.577 119.535 430.404 119.535Z" fill="#0044EB"/>
<path d="M423.702 91.6847C430.048 91.6847 433.574 94.1526 434.632 95.2103C434.984 95.2103 451.555 114.601 451.202 115.306C451.202 115.659 449.792 116.012 447.677 116.012C443.798 116.012 437.1 114.954 435.689 113.191C436.395 112.486 438.157 112.486 438.157 110.723C438.157 110.371 437.452 109.665 437.1 108.608C436.042 107.197 435.689 106.492 435.337 105.082C434.279 102.262 433.927 101.204 429.343 99.7936C426.875 99.0885 422.997 98.0308 422.645 95.9154C423.35 96.268 423.702 96.268 424.055 96.268C424.76 96.268 425.113 95.9154 425.113 95.5629C424.76 95.2103 423.702 94.5052 421.939 94.5052C420.529 94.5052 418.766 94.8577 416.651 95.9154C414.183 97.3257 411.363 98.0308 409.6 98.0308C408.895 98.0308 408.542 98.0308 408.542 97.6782C408.542 97.6782 412.42 93.8001 417.709 92.0372C420.177 92.0372 421.939 91.6847 423.702 91.6847ZM423.702 89.9219C421.939 89.9219 419.824 90.2744 418.061 90.627C413.125 92.3898 408.19 95.9154 407.837 97.3257L407.484 98.3834L408.19 99.0885C408.895 99.4411 409.6 99.7936 410.657 99.7936C412.42 99.7936 415.593 99.0885 418.414 97.3257C419.472 96.6206 420.529 96.268 421.587 96.268C421.939 99.7936 426.523 100.851 429.343 101.556C433.221 102.614 433.221 102.967 433.927 105.435C434.632 107.197 434.984 108.255 436.042 109.665C436.395 110.018 436.395 110.371 436.747 110.723C436.747 110.723 436.747 110.723 436.395 110.723C436.042 111.076 435.337 111.076 434.632 111.781L433.574 112.838L434.632 113.896C436.747 116.717 445.209 117.422 448.029 117.422C449.792 117.422 452.965 117.422 452.965 115.306C453.318 112.838 435.689 93.8001 435.689 93.4475C434.279 92.7424 430.401 89.9219 423.702 89.9219Z" fill="#0044EB"/>
<path d="M456.137 117.767C459.663 117.767 481.169 119.882 480.112 124.465C479.759 125.876 480.817 127.286 480.817 128.696C480.817 129.049 480.464 129.049 480.112 129.401C479.759 129.401 471.298 129.049 466.362 128.344C465.657 128.344 465.304 128.344 464.952 128.344C464.952 128.344 464.952 128.344 464.599 128.344C461.778 128.696 462.131 132.927 459.311 132.927H458.958C457.195 132.574 458.253 130.106 456.843 129.401C453.67 127.638 450.144 127.638 447.323 125.876V125.523C447.323 125.523 447.676 125.523 448.029 125.523C448.734 125.523 450.144 125.523 452.964 126.228C454.727 126.581 456.137 126.581 457.195 126.581C457.548 126.581 457.9 126.581 458.253 126.228C458.253 126.228 459.663 122.35 456.137 118.824C455.785 118.472 455.785 118.472 455.785 118.119C455.785 118.119 456.137 117.767 456.49 117.767C455.785 117.767 456.137 117.767 456.137 117.767ZM456.137 116.004C455.785 116.004 455.432 116.004 455.432 116.004C454.727 116.004 454.375 116.356 454.022 116.709L453.317 117.062V117.767C453.317 118.824 453.67 119.177 454.375 119.882C456.137 121.645 456.49 123.408 456.49 124.113C455.785 124.113 454.375 123.76 453.317 123.76C449.791 123.055 448.381 123.055 448.029 123.055C447.323 123.055 447.323 123.055 446.971 123.055L444.855 123.76L445.913 125.876C445.913 125.876 446.266 126.228 446.618 126.581C448.381 127.638 450.144 127.991 451.907 128.696C453.317 129.049 454.727 129.401 456.137 130.106C456.137 130.106 456.137 130.459 456.137 130.812C456.137 131.869 456.49 133.632 458.958 133.985C459.311 133.985 459.311 133.985 459.311 133.985C461.778 133.985 462.836 132.222 463.541 130.812C464.246 129.754 464.246 129.401 464.952 129.401C465.304 129.401 465.657 129.401 466.009 129.401C470.945 130.106 479.407 130.459 480.112 130.459H480.464C482.227 130.106 482.58 129.049 482.58 128.344C482.58 127.286 482.227 126.581 482.227 125.876C481.875 125.171 481.875 124.818 481.875 124.465C482.227 123.408 481.875 122.35 481.169 121.645C477.644 117.062 456.49 116.004 456.137 116.004Z" fill="#0044EB"/>
<path d="M897.544 289.822C897.896 289.822 897.896 290.175 897.544 289.822C896.839 292.995 890.492 301.81 888.377 304.278C887.672 305.335 887.672 305.335 887.319 305.688C888.024 304.278 888.024 304.278 888.024 304.278C879.21 313.444 871.101 323.668 861.582 332.483C850.653 342.707 850.3 343.412 847.48 343.412H847.127C847.48 342.354 858.762 327.899 866.871 321.553C869.691 319.438 870.749 318.733 873.217 314.502C878.858 306.393 879.915 304.63 883.441 303.572C888.024 301.81 888.024 301.81 895.076 292.995C896.838 290.88 896.839 290.88 897.544 289.822ZM897.191 287.707L896.486 288.765C895.781 289.47 895.781 289.822 894.018 291.938C887.672 300.399 887.672 300.399 883.441 301.81C879.21 303.22 877.8 305.335 872.159 313.444C869.691 317.322 868.633 318.027 866.165 320.143C858.057 326.489 846.422 340.944 845.717 343.059L845.012 345.175H847.127H847.48C850.653 345.175 851.358 344.47 862.64 333.893C868.281 328.252 873.922 322.611 878.858 316.617C881.326 314.149 883.794 311.329 885.909 308.861L887.672 307.451C888.377 307.098 888.377 306.745 889.082 305.688C890.845 303.572 897.544 294.406 898.954 290.88L899.306 289.47L897.896 288.765C897.896 288.765 897.544 288.765 897.544 288.412L897.191 287.707Z" fill="#0044EB"/>
<path d="M455.784 -229.15C456.137 -229.15 456.49 -229.15 456.842 -229.15C439.919 -219.278 439.919 -219.278 436.041 -213.637C436.393 -213.285 436.746 -213.285 437.099 -212.932C437.099 -211.522 437.099 -211.522 430.752 -201.298C434.278 -201.298 434.278 -201.298 434.631 -200.945C434.631 -200.945 430.4 -195.304 431.105 -193.189C434.278 -196.009 435.688 -199.888 439.919 -201.65C443.445 -197.772 435.688 -195.304 435.336 -191.426C436.393 -190.368 437.804 -190.016 438.509 -190.016C443.092 -190.016 446.618 -198.83 450.849 -201.298C451.906 -206.586 454.374 -207.996 456.49 -207.996C459.663 -207.996 462.483 -204.823 462.483 -204.823C462.131 -203.766 461.778 -202.708 461.073 -202.003C460.015 -200.593 457.547 -200.945 456.842 -199.182C455.784 -197.42 457.547 -195.304 456.49 -193.541C456.137 -192.836 455.432 -192.131 454.727 -191.426C451.906 -188.958 451.906 -188.958 441.682 -185.432C441.329 -186.138 440.624 -186.138 439.919 -186.138C437.804 -186.138 435.688 -184.022 435.688 -184.022C436.393 -184.022 437.099 -183.67 437.451 -183.317C432.868 -176.266 425.464 -180.144 419.47 -178.029C422.291 -176.266 424.054 -175.913 426.169 -175.913C427.579 -175.913 429.342 -176.266 431.81 -176.618C422.643 -167.099 422.643 -167.099 406.778 -164.279C408.188 -163.221 411.009 -164.279 412.067 -161.811C403.958 -155.817 384.919 -141.715 386.329 -133.606C392.323 -133.253 392.323 -133.253 392.676 -130.433C393.733 -123.029 393.733 -123.029 394.791 -122.324C397.259 -123.029 399.374 -125.144 402.195 -125.144C402.547 -125.144 402.9 -125.144 403.253 -125.144C403.958 -125.144 404.663 -124.792 405.368 -124.439C408.894 -123.029 410.656 -119.503 414.535 -118.445C415.24 -118.445 415.592 -118.093 416.297 -118.093C418.06 -118.093 419.823 -118.445 421.586 -118.445C422.996 -118.445 424.406 -118.093 425.817 -117.035C425.817 -117.035 425.817 -117.035 426.169 -117.035C426.874 -117.035 427.579 -117.035 427.932 -117.035C427.932 -116.683 427.932 -115.978 427.932 -115.978C427.227 -115.625 426.522 -114.92 425.817 -114.215C426.874 -111.747 427.579 -109.631 425.817 -103.99C429.342 -101.522 433.925 -100.465 436.393 -96.5866C444.502 -102.228 439.919 -111.042 441.682 -118.445C443.092 -119.503 443.445 -119.856 443.797 -120.208C443.092 -122.676 446.618 -124.086 448.028 -124.439C455.079 -126.202 455.079 -138.542 455.079 -138.542C455.079 -141.715 451.906 -143.477 451.906 -146.651C451.906 -149.471 455.079 -150.176 455.784 -152.644C451.906 -157.58 457.547 -161.811 456.842 -166.747C461.778 -168.862 467.419 -167.804 472.707 -169.215C473.06 -169.215 473.413 -169.215 473.413 -169.215C473.765 -169.215 474.118 -169.215 475.175 -168.862C480.816 -167.099 481.521 -166.041 481.521 -165.689C482.227 -164.631 482.579 -164.279 482.932 -163.926C483.637 -163.574 484.342 -163.574 485.047 -163.574C486.105 -163.574 486.81 -163.574 487.868 -163.574C488.573 -163.574 489.278 -163.574 489.983 -163.221C487.515 -161.458 486.105 -153.349 486.81 -151.939C489.983 -151.234 492.803 -148.413 496.329 -148.413C497.034 -148.413 497.739 -148.413 498.445 -148.766C499.15 -149.118 499.15 -149.118 501.618 -152.644C502.675 -154.054 504.791 -152.997 506.201 -154.407C507.259 -155.465 505.496 -156.875 506.201 -157.933C507.964 -161.106 509.021 -163.221 510.079 -163.221C511.842 -163.221 513.605 -159.695 518.541 -150.881C521.714 -144.888 521.714 -144.888 520.303 -142.772C519.246 -141.362 518.893 -140.657 519.598 -139.952C521.009 -138.189 523.476 -138.542 524.887 -136.779C525.944 -135.368 524.887 -133.958 525.239 -132.901C525.592 -132.901 525.944 -132.548 525.944 -132.548C526.297 -132.548 526.65 -132.548 527.355 -132.901C528.412 -133.253 529.47 -133.253 530.528 -133.253C535.816 -133.253 539.694 -129.727 539.342 -129.022C538.989 -128.67 538.637 -128.317 538.284 -128.317C522.066 -126.907 510.432 -125.849 497.034 -124.439C511.489 -125.849 524.534 -126.907 538.284 -128.317C531.233 -125.497 530.528 -125.144 528.412 -122.676C528.765 -122.324 528.765 -121.619 529.117 -121.266C535.111 -125.144 538.637 -125.497 540.047 -125.849C540.399 -125.849 540.752 -125.849 541.457 -125.849C543.22 -125.497 545.335 -125.144 547.098 -124.792C547.451 -124.439 547.803 -123.734 548.156 -123.029C546.393 -118.798 546.393 -118.798 547.451 -115.978C544.278 -110.337 525.944 -100.817 517.835 -100.817C516.778 -100.817 515.72 -101.17 515.015 -101.522C492.098 -94.4712 492.098 -94.4712 469.534 -71.202C493.861 -86.3622 499.855 -90.2404 502.675 -90.2404C503.38 -90.2404 504.085 -89.8879 504.438 -89.1828C504.085 -83.8943 500.56 -83.1892 495.977 -81.7789C497.387 -80.0161 497.387 -80.0161 500.56 -78.9584C501.97 -75.0802 502.323 -73.3174 505.496 -71.9072C504.438 -74.0225 505.496 -76.4905 505.848 -76.843C505.848 -76.843 505.848 -76.843 505.848 -76.1379C505.848 -74.7277 505.848 -73.67 507.611 -72.9649C507.964 -72.6123 509.374 -72.2597 511.137 -72.2597C511.842 -72.2597 512.547 -72.2597 513.252 -72.6123C513.605 -72.6123 513.605 -72.6123 513.957 -72.6123C513.957 -72.6123 512.547 -70.4969 510.784 -70.1443C512.547 -69.4392 515.015 -69.0867 517.835 -68.029C519.951 -71.202 520.303 -75.7854 523.829 -77.9007C528.412 -66.2662 502.675 -51.1059 494.214 -51.1059C494.214 -53.5739 494.214 -53.5739 506.906 -62.388C506.906 -63.0931 506.906 -63.7982 506.906 -64.1508C505.848 -64.1508 504.085 -64.5033 503.028 -64.8559C503.38 -65.2085 503.38 -65.9136 503.733 -66.2662C483.637 -54.6316 482.227 -53.9265 481.169 -53.9265C481.169 -53.9265 481.169 -53.9265 480.816 -53.9265C473.413 -46.8752 473.413 -46.8752 472.002 -33.8304C470.592 -33.8304 455.784 -25.7214 455.784 -25.7214C452.259 -22.1958 452.964 -17.2599 450.849 -13.0291C450.496 -15.1445 448.733 -16.5548 448.028 -18.3176C446.97 -1.39458 446.97 -1.39456 445.56 -0.689438C445.56 -0.689438 445.56 -12.324 445.207 -16.2022L442.74 9.5349C443.092 9.5349 443.797 9.88745 444.502 10.24C444.502 10.9451 444.502 11.6503 444.15 12.3554C443.797 12.3554 443.092 12.708 442.387 12.708C442.387 13.0605 442.387 13.7657 442.034 14.4708C442.387 14.8233 442.74 15.5285 443.092 15.881C435.336 24.6951 421.233 28.2207 419.118 41.9707C417.002 55.3681 437.451 67.3552 424.406 80.7526C413.477 74.4065 420.528 58.5411 409.246 52.5476C408.541 52.5476 382.804 54.663 379.631 56.7784C379.631 57.4835 379.278 58.1886 379.278 58.5412C380.688 59.5988 382.451 60.304 383.862 61.7142C383.509 62.0668 382.804 62.4193 382.451 62.7719C382.451 62.7719 374.342 61.0091 367.996 61.0091C365.176 61.0091 362.708 61.3617 361.65 62.4193C359.182 64.1822 348.958 74.7591 347.548 80.0475C346.137 84.2783 351.073 86.0411 351.426 89.9193C351.426 95.9128 346.49 100.496 348.253 106.842C349.663 111.778 354.246 121.297 367.291 128.701C368.349 129.406 369.406 129.406 370.112 129.406C373.99 129.406 376.458 125.176 380.336 125.176H380.688C382.451 107.195 387.74 102.964 391.97 102.964C395.496 102.964 398.669 105.432 399.374 106.137C397.964 113.894 397.964 113.894 394.438 122.355C396.554 126.586 396.554 126.586 393.733 135.752C394.438 135.752 394.791 135.752 395.496 135.752C400.785 135.752 405.72 134.342 411.009 134.342C413.829 134.342 416.65 134.695 419.47 136.105C419.47 136.105 424.054 144.214 422.643 154.791C421.233 164.31 428.637 165.368 437.451 165.368C439.566 165.368 441.682 165.368 443.797 165.368C449.438 165.368 454.727 165.72 458.605 168.188C460.72 150.56 472.355 145.272 489.63 145.272C500.207 145.272 512.9 147.034 526.65 149.15C527.707 149.15 529.47 149.855 530.528 150.208C537.932 153.733 542.515 161.137 549.566 165.368C558.38 170.656 569.31 168.893 578.124 174.182C584.822 178.06 589.758 184.759 596.104 188.989C599.983 193.22 600.335 200.271 606.681 202.387C617.258 205.207 628.188 206.97 638.765 210.143C645.816 212.259 650.752 218.605 658.156 220.368C658.508 220.368 658.861 220.368 659.213 220.368C660.623 220.368 662.034 219.662 663.444 219.662C664.149 219.662 664.502 219.662 665.207 220.015C668.38 221.778 664.854 224.951 665.559 227.771C665.912 229.534 667.322 230.592 667.675 232.355C667.675 232.355 667.675 232.707 667.675 233.06C667.675 233.06 662.739 248.573 648.636 253.508C648.636 253.861 648.989 254.566 649.341 254.919C650.752 257.034 650.047 258.092 647.931 261.617C646.168 264.438 647.579 267.258 647.579 270.079C647.226 275.367 647.931 280.303 647.226 285.592C646.874 287.355 646.874 287.707 645.816 287.707C645.463 287.707 644.758 287.707 644.406 287.707C644.053 287.707 643.7 287.707 643.348 287.707C642.29 287.707 640.88 288.06 639.47 289.47C635.239 293.348 635.239 300.399 629.245 302.867C626.777 303.925 620.431 307.098 617.963 312.386C617.963 312.739 610.56 353.636 593.989 353.989L596.104 357.162C597.867 359.63 596.104 364.213 591.169 364.213C590.111 364.213 589.406 364.213 587.996 363.861C587.643 364.213 587.29 364.213 586.938 364.566C587.29 367.386 587.29 367.386 583.06 371.265C588.348 378.668 588.348 378.668 588.701 379.373C586.938 379.373 585.88 379.373 585.175 379.373C584.117 379.373 583.765 379.373 583.412 379.726C589.758 397.002 589.758 397.002 592.931 400.527C590.816 410.752 590.816 410.752 614.438 423.091C614.438 423.091 613.38 423.091 611.97 423.091C604.919 423.091 584.822 420.271 563.669 391.008C543.573 362.45 531.938 310.271 531.585 309.919C529.47 298.989 524.887 290.528 518.893 286.297C511.137 280.656 500.912 279.246 493.509 272.899C493.156 272.547 462.836 242.579 455.432 231.65C455.079 230.944 454.374 230.239 454.022 229.534C451.554 225.303 457.195 203.092 457.195 202.739C462.836 190.4 462.836 190.4 462.131 187.227C460.368 180.528 456.842 168.188 451.201 168.188C449.086 168.188 446.618 169.951 443.797 174.534C443.445 174.534 443.092 174.534 442.74 174.534C420.881 174.534 412.419 149.855 392.323 147.034C391.618 147.034 390.56 146.682 389.855 146.682C385.272 146.329 385.272 146.329 372.227 138.573C370.112 137.515 367.996 137.163 365.881 137.163C363.06 137.163 360.592 137.868 357.772 137.868C356.714 137.868 355.656 137.868 354.246 137.515C348.605 136.105 342.612 135.4 336.971 133.637C335.208 133.284 333.445 132.227 331.682 131.522C330.977 131.169 329.567 130.817 328.862 130.111C323.221 126.233 324.631 119.535 321.81 114.246C318.637 107.9 311.586 104.727 307.708 98.7333C304.535 94.15 301.009 90.2718 298.189 85.6885C296.778 83.5731 296.073 80.0475 295.368 77.227C294.311 72.9962 293.605 69.4706 286.554 64.5347C292.195 87.4513 295.368 92.0346 298.541 96.2654C304.887 105.432 303.83 107.547 302.419 109.31C302.419 109.31 288.317 90.977 286.202 87.0988C287.259 87.0988 288.67 87.0988 290.08 87.0988C274.214 54.3104 274.214 54.3104 273.157 54.3104C265.753 41.6181 269.631 -27.1317 280.561 -40.8816C281.618 -40.5291 282.676 -39.8239 283.734 -39.1188C283.734 -41.9393 283.029 -44.4073 281.971 -46.8752C281.971 -46.5226 281.971 -46.1701 281.971 -45.4649C281.971 -45.1124 281.971 -44.4072 281.618 -43.7021C281.266 -42.997 280.913 -42.6444 280.561 -42.2919C280.561 -42.2919 280.561 -42.2919 280.208 -42.2919C279.503 -42.2919 278.445 -42.6444 277.74 -44.4073C276.682 -47.5803 277.74 -51.4585 277.74 -51.4585C278.093 -51.4585 278.445 -50.0483 278.445 -49.6957C278.798 -48.9906 278.798 -48.9906 278.798 -48.638C278.798 -48.638 279.15 -48.2854 279.503 -48.2854C280.208 -48.2854 280.913 -47.9329 281.266 -47.9329C280.561 -50.4008 279.855 -52.8688 280.208 -55.3367C282.323 -66.6187 282.323 -66.6187 284.439 -72.9649C284.086 -73.3174 283.734 -74.0226 283.381 -74.7277C283.734 -76.1379 284.439 -77.9007 284.791 -78.9584C285.496 -83.5417 285.496 -83.5417 292.195 -99.7596C292.195 -99.4071 291.843 -99.4071 291.843 -99.0545C301.362 -115.272 302.067 -115.625 323.926 -144.183C328.862 -149.824 335.913 -157.58 340.849 -163.221C340.496 -162.868 340.144 -162.163 339.791 -161.458C347.9 -169.567 354.599 -174.503 354.599 -174.503C351.778 -171.682 348.605 -169.215 345.432 -166.394C354.599 -174.15 354.599 -174.15 359.535 -178.734C356.714 -175.208 356.714 -175.208 355.656 -173.093C357.419 -174.856 357.419 -174.856 358.83 -175.561C358.477 -175.208 358.124 -174.15 357.772 -173.798C359.535 -174.856 360.592 -176.618 362.708 -177.323C363.06 -176.971 363.765 -176.266 364.118 -175.913C365.176 -175.913 365.881 -175.561 366.586 -175.561C367.291 -175.561 367.644 -175.561 368.349 -175.913C368.701 -175.913 369.054 -175.561 369.054 -175.561C368.349 -172.388 365.176 -171.682 363.413 -169.92C363.765 -169.92 364.118 -169.92 364.471 -169.92C368.349 -169.92 371.522 -172.74 375.4 -173.445C375.753 -171.33 373.637 -169.567 374.695 -167.099C379.278 -175.913 381.746 -180.497 389.503 -182.612C390.208 -181.554 390.208 -180.497 390.56 -179.439C391.618 -179.439 392.676 -179.439 393.733 -179.439C400.785 -179.439 402.9 -180.849 403.253 -181.202C409.246 -185.785 410.656 -186.843 412.067 -186.843C412.419 -186.843 412.772 -186.843 413.477 -186.49C409.246 -181.907 409.246 -181.907 411.714 -179.791C414.182 -185.432 420.528 -186.843 423.349 -192.131C422.996 -192.131 422.643 -192.131 422.643 -192.484C422.643 -192.484 422.643 -192.484 422.643 -193.189C424.054 -194.599 424.406 -194.952 427.579 -196.362C427.579 -196.714 427.579 -197.067 427.227 -197.42C425.817 -197.42 424.406 -197.067 422.996 -197.067C422.996 -197.42 422.643 -197.772 422.643 -198.125C422.643 -198.477 441.329 -223.862 454.727 -227.035C454.727 -229.15 455.432 -229.15 455.784 -229.15ZM455.784 -230.913C455.079 -230.913 454.727 -230.913 453.316 -230.56C438.861 -227.035 420.176 -200.945 419.823 -200.593L419.47 -199.888L419.823 -199.182L420.176 -198.477V-198.125L420.528 -197.067C420.176 -197.067 420.176 -196.714 419.823 -196.362L419.47 -196.009V-195.304V-194.599V-193.541C418.413 -192.131 417.002 -191.073 415.592 -190.016C415.592 -190.016 415.24 -190.016 415.24 -189.663L412.772 -190.368C412.067 -190.368 411.714 -190.721 411.009 -190.721C408.893 -190.721 407.836 -189.663 401.137 -184.727C401.137 -184.727 399.374 -183.317 392.676 -183.317C391.97 -183.317 391.265 -183.317 390.56 -183.317C390.56 -184.022 390.208 -184.727 389.503 -185.432L388.797 -186.49L387.74 -186.138C381.746 -184.727 378.926 -181.907 376.105 -176.971L374.342 -176.618C372.58 -176.266 370.817 -175.561 369.054 -174.856C369.406 -175.561 369.759 -175.913 369.759 -176.618L370.112 -178.029L369.054 -178.734H368.701L367.996 -179.086L367.291 -179.439L366.586 -179.086C365.881 -178.734 365.881 -178.734 365.528 -178.734C365.176 -178.734 364.823 -178.734 364.118 -178.734C363.765 -179.086 363.413 -179.439 363.06 -179.791L362.708 -180.144L367.291 -185.785L362.355 -182.259L358.83 -180.144L358.124 -182.612C356.362 -180.849 355.304 -179.791 353.894 -178.734L353.189 -178.381C352.836 -178.381 346.842 -173.798 339.086 -166.041L338.733 -166.394L335.208 -162.516L322.163 -147.356C299.952 -118.445 299.599 -118.093 289.727 -101.875V-101.522C283.381 -85.6571 283.381 -85.6571 282.676 -81.0738C282.323 -79.6635 281.618 -78.2533 281.266 -76.843L280.913 -76.1379L281.266 -75.4328L281.971 -74.3751C280.208 -68.3815 279.855 -68.029 277.74 -57.0995C277.387 -56.0418 277.387 -54.9841 277.387 -54.279H277.035L275.977 -54.6316L275.625 -54.279H274.92L274.567 -53.2213C274.567 -53.2213 273.509 -48.9906 274.567 -45.1124C275.272 -43.3496 276.33 -42.2919 277.035 -41.9393C265.753 -26.074 262.227 41.2656 269.984 54.663L270.336 55.3681H270.689C271.746 56.7784 275.272 63.8296 285.496 84.6308C285.144 84.6308 284.791 84.6308 284.439 84.6308H281.971L283.029 87.0988C285.144 91.3295 299.246 109.663 299.246 109.663L300.657 111.426L303.125 110.015C304.887 107.195 305.945 104.374 299.246 94.8551C296.778 91.3295 293.605 87.0988 289.022 69.118C291.843 71.9385 292.195 74.4065 292.9 77.227C293.605 80.4001 294.311 83.9257 296.073 86.3936C297.836 89.2141 299.599 91.6821 301.714 94.15C303.125 95.9128 304.535 97.6756 305.593 99.4384C307.355 102.259 309.823 104.374 312.291 106.49C315.112 108.958 317.932 111.426 319.342 114.599C320.048 116.361 320.753 118.124 321.105 120.24C321.81 124.118 322.868 128.349 326.746 131.169C327.451 131.874 328.509 132.227 329.567 132.579H329.919C330.625 132.932 330.977 132.932 331.682 133.284C332.74 133.99 334.15 134.342 335.208 134.695C338.381 135.4 341.554 136.105 344.727 136.81C347.195 137.163 350.015 137.868 352.483 138.573C353.541 138.926 354.951 138.926 356.362 138.926C357.772 138.926 359.182 138.926 360.592 138.573C362.003 138.573 363.06 138.22 364.471 138.22C366.586 138.22 368.349 138.573 369.759 139.631C382.804 147.034 383.156 147.387 388.092 147.74C388.797 147.74 389.503 148.092 390.208 148.092C399.022 149.502 405.72 155.143 412.772 161.49C420.881 168.541 428.99 175.945 440.977 175.945C441.329 175.945 441.682 175.945 442.034 175.945H443.092L443.445 175.24C445.56 171.714 447.675 169.598 449.438 169.598C452.611 169.598 456.137 176.297 458.605 187.579C459.31 190.047 459.31 190.047 453.669 201.682C453.669 202.034 447.675 224.951 450.496 229.887L450.849 230.239C451.201 230.944 451.554 231.65 451.906 232.355C459.31 243.284 489.983 273.605 490.336 273.957C494.566 277.483 499.502 279.598 504.438 281.714C508.669 283.476 512.194 284.887 515.72 287.355C521.361 291.233 525.592 299.342 527.707 309.919C527.707 310.271 539.694 363.156 559.79 391.713C580.944 421.328 601.393 424.502 609.502 424.502C610.912 424.502 612.322 424.502 612.675 424.149L616.553 422.739L612.675 420.623C590.111 408.989 590.111 408.989 591.874 400.175L592.226 399.117L591.521 398.412C588.701 395.239 588.348 395.239 583.06 380.431C583.765 380.431 584.822 380.431 586.233 380.431H588.348V378.316C588.348 377.258 588.348 377.258 583.412 370.559C586.233 368.091 586.938 367.386 586.938 364.918C587.643 364.918 588.348 365.271 589.053 365.271C591.874 365.271 594.342 363.861 595.752 361.745C596.81 359.63 596.81 357.162 595.752 355.399L595.047 354.694C610.56 350.111 617.258 315.912 617.611 312.386C619.726 307.803 625.72 304.983 627.835 303.925C632.066 302.162 633.829 298.637 635.239 295.464C636.297 293.348 637.002 291.585 638.765 290.175C639.822 289.117 640.88 289.117 641.585 289.117C641.938 289.117 642.29 289.117 642.29 289.117C642.995 289.117 643.7 289.117 644.053 289.117C646.874 289.117 646.874 287.002 647.226 285.592C647.579 282.419 647.579 278.893 647.579 275.72C647.579 273.957 647.579 271.842 647.579 270.079C647.579 269.021 647.579 267.964 647.226 266.906C646.874 264.79 646.874 263.733 647.579 262.323C649.694 259.149 651.104 257.034 649.341 254.214C663.091 248.22 667.675 233.06 667.675 233.06C667.675 232.707 667.675 232.355 667.675 232.002C667.322 230.944 666.97 229.887 666.617 229.182C666.264 228.477 665.912 228.124 665.912 227.419C665.912 227.066 666.264 226.009 666.264 225.303C666.97 223.541 668.027 220.368 664.502 218.605C663.797 218.252 662.739 217.9 662.034 217.9C661.329 217.9 660.271 217.9 659.566 218.252C658.861 218.252 658.508 218.605 657.803 218.605C657.45 218.605 657.45 218.605 657.45 218.605C653.925 217.9 650.752 215.784 647.931 213.669C645.111 211.553 641.938 209.791 638.412 208.38C631.713 206.265 624.662 204.855 617.963 203.445C614.085 202.739 610.207 201.682 606.329 200.624C603.156 199.566 601.745 196.393 600.335 193.573C599.278 191.457 598.22 189.342 596.81 187.579H596.457C593.637 185.816 591.169 183.348 588.348 180.881C585.175 178.06 582.002 174.887 578.124 172.772C573.54 170.304 568.252 169.246 563.669 168.541C558.733 167.836 553.797 166.778 549.566 164.31C546.746 162.547 543.925 160.079 541.457 157.611C538.284 154.438 534.758 151.265 530.528 149.15C529.117 148.445 527.355 148.092 526.297 147.74C512.547 145.624 499.855 143.861 489.278 143.861C475.88 143.861 460.368 146.329 456.842 165.72C453.316 164.31 449.086 163.957 443.445 163.957C442.387 163.957 441.329 163.957 440.272 163.957C439.214 163.957 438.156 163.957 437.099 163.957C432.515 163.957 427.227 163.605 425.111 161.137C424.054 159.727 423.701 157.964 424.054 155.143C425.464 144.214 421.233 135.047 419.823 134.695C417.355 133.285 414.182 132.579 410.656 132.579C407.836 132.579 405.368 132.932 402.9 133.284C400.432 133.637 398.317 133.99 396.201 133.99C398.317 127.291 398.317 125.881 396.554 122.003C400.079 113.894 400.079 113.541 401.49 106.137V105.079L400.785 104.374C399.727 103.669 396.554 100.849 392.323 100.849C385.272 100.849 381.041 108.253 379.278 123.06C377.515 123.413 375.753 124.47 374.342 125.176C372.932 126.233 371.522 126.938 370.112 126.938C369.406 126.938 368.701 126.586 367.996 126.233C355.656 119.182 351.426 110.015 350.015 105.432C349.31 102.612 350.015 99.791 351.426 96.9705C352.483 94.5026 353.541 92.0346 353.189 89.2141C353.189 87.0988 351.778 85.3359 350.721 83.9257C349.31 82.1629 348.958 81.4577 349.31 80.0475C350.721 75.1116 360.592 64.8873 363.06 63.1245C363.413 62.7719 364.823 62.0668 368.349 62.0668C373.637 62.0668 380.688 63.4771 382.099 63.8296L382.804 64.1822L383.509 63.4771C383.862 63.1245 384.567 62.7719 384.919 62.0668L386.329 61.0091L384.919 59.5988C383.862 58.5411 382.804 57.836 381.746 57.4835C381.394 57.4835 381.394 57.1309 381.041 57.1309C385.977 55.7206 404.663 53.9578 408.541 53.6053C413.124 56.4258 414.182 61.0091 414.887 66.2975C415.945 71.586 417.002 77.9321 422.996 81.4578L424.054 82.1629L425.111 81.1052C433.573 72.2911 428.99 63.8296 424.759 56.0732C421.938 50.7848 419.47 46.2014 420.176 41.2656C421.586 32.804 427.579 28.5733 433.925 23.99C437.451 21.522 440.977 19.0541 443.797 15.881L445.913 13.4131L444.15 13.7656H444.502L445.56 13.4131V12.3554V11.2977V10.24V8.82979L444.15 8.4772H443.797L444.502 1.42593L445.56 0.720825C447.323 -0.336868 447.323 -0.689438 448.381 -12.324L449.086 -8.44582L451.554 -12.324C452.611 -14.0868 452.964 -16.2022 453.669 -18.3176C454.374 -20.7855 454.727 -22.9009 456.49 -24.6637C458.252 -25.7214 469.887 -32.0676 472.002 -32.4201H473.413L473.765 -33.8304C475.175 -46.1701 475.175 -46.5226 481.521 -52.5162C482.932 -52.5162 484.695 -53.5739 501.97 -63.7982H502.323C502.675 -63.7982 503.38 -63.4456 504.438 -63.0931C492.803 -54.9841 492.803 -54.6316 492.451 -51.4585V-49.6957H494.214C500.912 -49.6957 517.13 -57.8046 523.476 -67.3238C526.297 -71.202 527.002 -75.4328 525.592 -78.6059L524.887 -80.7212L523.124 -79.6635C520.303 -77.9007 519.246 -75.0802 518.541 -72.6123C518.188 -71.9072 517.835 -70.8495 517.483 -70.1443C516.778 -70.4969 516.073 -70.4969 515.368 -70.8495C515.72 -71.202 516.073 -71.9072 516.073 -71.9072V-72.2597L516.425 -73.3174H516.073L515.72 -73.67L515.368 -74.0225H515.015C515.015 -74.0225 514.662 -74.0225 514.31 -74.0225C514.31 -74.0225 513.957 -74.0225 513.605 -74.0225C512.9 -74.0225 512.194 -74.0225 511.489 -74.0225C509.727 -74.0225 509.021 -74.3751 508.669 -74.7277C507.611 -75.0802 507.611 -75.4328 507.964 -76.1379C507.964 -76.4905 507.964 -77.5482 507.259 -78.2533L506.201 -78.9584L505.143 -78.2533L504.791 -77.9007L504.438 -77.5482C504.438 -77.1956 504.086 -76.4905 503.733 -75.4328C503.38 -76.1379 502.675 -77.5482 502.323 -79.311L501.97 -80.3687L501.265 -80.7212C500.56 -81.0738 500.207 -81.0738 499.855 -81.4264C503.028 -82.4841 505.848 -84.2469 506.553 -88.4776L506.906 -89.5353L506.201 -90.2404C505.496 -90.9456 504.791 -91.6507 503.028 -91.6507C500.56 -91.6507 497.034 -89.5353 481.521 -80.0161C494.214 -92.7084 497.387 -93.7661 515.368 -99.0545C516.073 -98.702 517.13 -98.3494 518.541 -98.3494C527.355 -98.3494 546.04 -108.221 549.566 -114.567L549.919 -115.272L549.566 -115.978C548.508 -118.093 548.508 -118.093 550.271 -121.619L550.624 -122.324L549.919 -123.381L549.566 -124.086C549.214 -124.439 549.214 -124.792 548.861 -125.144L548.508 -125.849H547.803L546.393 -126.202C544.983 -126.554 543.573 -126.907 542.162 -127.26H541.105L550.976 -131.138L541.457 -130.433C541.457 -130.433 541.457 -130.785 541.105 -130.785C540.047 -132.548 535.816 -135.016 530.88 -135.016C529.823 -135.016 528.412 -135.016 527.355 -134.663C527.355 -135.721 527.707 -136.779 526.65 -137.836C525.592 -139.247 524.182 -139.599 523.124 -139.952C522.419 -140.304 522.066 -140.304 521.714 -140.657C522.066 -141.009 522.066 -141.362 522.419 -141.715C524.534 -144.888 524.182 -145.593 520.656 -151.586C515.015 -161.458 513.252 -164.631 510.784 -164.631C508.669 -164.631 507.259 -162.516 505.496 -158.638C504.791 -157.58 505.143 -156.17 505.496 -155.465V-155.112C505.143 -155.112 504.791 -155.112 504.791 -155.112C503.733 -155.112 502.323 -155.112 501.265 -153.349C499.855 -151.586 499.15 -150.529 498.797 -150.176C498.444 -150.176 497.739 -149.824 497.387 -149.824C495.624 -149.824 494.214 -150.529 492.803 -151.586C491.746 -151.939 490.688 -152.644 489.63 -152.997C489.63 -155.112 491.041 -160.4 492.451 -161.458L494.919 -163.574L491.746 -164.631C491.041 -164.984 489.983 -164.984 489.278 -164.984C488.925 -164.984 488.22 -164.984 487.868 -164.984C487.515 -164.984 487.162 -164.984 486.457 -164.984C485.752 -164.984 485.4 -164.984 485.047 -165.336C485.047 -165.336 484.695 -165.689 484.342 -166.394C483.637 -167.452 482.579 -168.509 476.938 -170.272C476.233 -170.625 475.528 -170.625 474.823 -170.625C474.47 -170.625 474.118 -170.625 473.765 -170.625C471.65 -169.92 469.534 -169.92 467.066 -169.92C463.893 -169.92 460.72 -169.567 457.547 -168.157L454.727 -167.099L455.079 -165.689C455.432 -164.279 454.727 -162.516 454.022 -161.106C452.964 -158.638 451.554 -155.465 453.669 -151.939C453.316 -151.586 452.964 -151.234 452.611 -150.881C451.554 -149.824 450.143 -148.413 450.143 -146.298C450.143 -144.183 451.201 -142.42 451.906 -141.01C452.611 -139.952 453.316 -138.894 453.316 -138.189C453.316 -138.189 453.316 -127.26 447.675 -125.849C445.913 -125.497 443.445 -124.439 442.387 -122.676C442.034 -121.971 441.682 -121.266 441.682 -120.561C441.329 -120.208 440.977 -120.208 440.624 -119.503L440.272 -119.151V-118.445C439.566 -115.625 439.566 -112.804 439.919 -110.337C440.272 -105.753 440.272 -101.875 437.099 -98.702C435.336 -100.817 432.868 -101.875 430.752 -103.285C429.695 -103.638 428.99 -104.343 428.284 -104.696C429.695 -109.279 428.99 -111.394 428.284 -113.862C428.637 -114.215 428.99 -114.567 429.342 -114.567L430.4 -115.272L430.047 -116.33C430.047 -116.683 430.047 -117.035 430.047 -117.388L429.695 -118.445H428.637C428.284 -118.445 427.579 -118.445 426.874 -118.445C425.464 -119.503 424.054 -119.856 422.291 -119.856C421.233 -119.856 420.176 -119.856 419.47 -119.503C418.765 -119.503 417.708 -119.151 417.002 -119.151C416.65 -119.151 415.945 -119.151 415.592 -119.151C414.182 -119.503 412.772 -120.561 411.361 -121.971C409.951 -123.381 408.541 -124.439 406.426 -125.144C405.368 -126.202 404.663 -126.202 403.958 -126.554C403.605 -126.554 403.253 -126.554 402.547 -126.554C400.432 -126.554 398.669 -125.497 397.259 -124.792C396.906 -124.439 396.201 -124.439 395.849 -124.086C395.496 -125.144 395.144 -127.26 394.791 -130.433C394.086 -133.958 393.028 -134.311 388.445 -134.663C389.503 -141.715 407.483 -155.112 413.477 -159.695L414.535 -160.4L414.182 -161.811C413.829 -162.516 413.829 -162.868 413.477 -163.221C424.054 -165.336 425.464 -166.394 433.573 -175.208L437.099 -179.086L435.688 -178.734C437.099 -179.439 438.156 -180.497 439.214 -182.259L440.272 -183.67L439.566 -184.022C439.919 -184.022 439.919 -184.022 440.272 -184.022C440.624 -184.022 440.977 -184.022 441.329 -183.67L442.034 -183.317L442.74 -183.67C453.316 -187.548 453.316 -187.548 456.137 -190.016C456.842 -190.721 457.547 -191.779 458.252 -192.484C459.31 -193.894 458.957 -195.657 458.605 -196.714C458.605 -197.42 458.252 -198.125 458.605 -198.477C458.957 -198.83 459.31 -199.182 460.015 -199.535C460.72 -199.888 461.778 -200.24 462.483 -200.945C463.188 -201.65 463.541 -202.708 463.541 -203.413C463.541 -203.766 463.893 -204.118 463.893 -204.471L464.598 -205.529L463.541 -206.586C462.836 -207.291 459.663 -210.112 456.137 -210.112C453.669 -210.112 450.496 -208.702 449.086 -202.708C447.323 -201.298 445.56 -199.182 444.15 -197.42C442.387 -194.952 440.272 -192.131 438.509 -192.131C438.156 -192.131 437.804 -192.131 437.451 -192.484C437.804 -193.189 438.861 -193.894 439.566 -194.599C440.977 -196.009 442.74 -197.772 442.74 -199.888C442.74 -200.945 442.387 -202.355 441.329 -203.061L440.272 -203.766L439.214 -203.413C438.156 -203.061 437.451 -202.708 436.746 -202.003L435.336 -202.708C434.983 -202.708 434.983 -202.708 433.925 -203.061C438.861 -211.17 438.861 -211.522 438.861 -212.932V-213.637L438.509 -213.99C441.329 -217.868 442.74 -218.926 457.547 -227.74L462.131 -230.56L456.842 -231.266C456.49 -230.913 456.137 -230.913 455.784 -230.913Z" fill="#0044EB"/>
<path d="M489.629 130.818C490.334 130.818 491.744 131.17 494.565 131.875C498.443 133.285 498.796 133.638 498.796 133.991C498.443 134.343 494.565 135.048 492.45 135.048C492.097 135.048 491.744 135.048 491.392 135.048C488.924 134.696 486.456 132.228 488.571 130.818C488.924 130.818 489.276 130.818 489.629 130.818ZM489.629 129.055C488.924 129.055 488.571 129.055 488.219 129.407H487.866H487.514C486.456 130.112 485.751 131.523 486.103 132.58C486.456 134.696 488.924 136.458 491.039 136.811C491.392 136.811 491.744 136.811 492.45 136.811C492.802 136.811 499.501 136.811 500.559 134.696C500.911 134.343 500.911 133.638 500.559 132.933C500.206 131.875 499.148 131.17 495.27 130.112C492.097 129.055 490.687 129.055 489.629 129.055Z" fill="#0044EB"/>
</g>
<defs>
<clipPath id="clip0_0_32381">
<rect width="1213" height="541" fill="white"/>
</clipPath>
</defs>
</svg>
