<svg width="45" height="45" viewBox="0 0 45 45" fill="none" xmlns="http://www.w3.org/2000/svg">
<g clip-path="url(#clip0_0_33291)">
<path fill-rule="evenodd" clip-rule="evenodd" d="M22.1837 33.7691L23.3614 32.9089L24.8598 31.8348L22.1861 29.9188L22.1837 33.7691ZM23.3665 37.0747L22.1837 36.2108L22.1862 40.0611L24.8599 38.1451L23.3665 37.0745V37.0747ZM18.5187 36.4462L20.5119 34.9898L18.5187 33.5337C18.3681 33.4237 18.2674 33.2584 18.2387 33.0741C18.21 32.8898 18.2557 32.7017 18.3657 32.5511C18.4757 32.4005 18.641 32.2998 18.8253 32.2711C19.0096 32.2424 19.1977 32.2881 19.3483 32.3981L20.7775 33.4422V31.8397L20.7828 28.5503C20.7831 28.4212 20.8189 28.2946 20.8863 28.1845C20.9537 28.0743 21.0502 27.9849 21.1651 27.926C21.28 27.8671 21.4089 27.8409 21.5377 27.8504C21.6665 27.8599 21.7901 27.9047 21.8952 27.9799L26.4764 31.2634C26.5671 31.3285 26.641 31.4143 26.692 31.5136C26.743 31.6129 26.7696 31.723 26.7696 31.8347C26.7696 31.9463 26.743 32.0564 26.692 32.1558C26.641 32.2551 26.5671 32.3409 26.4764 32.406L24.1858 34.0486L22.8964 34.9902L24.1912 35.9358L26.4764 37.5739C26.5671 37.639 26.641 37.7248 26.692 37.8242C26.743 37.9235 26.7696 38.0336 26.7696 38.1452C26.7696 38.2569 26.743 38.367 26.692 38.4663C26.641 38.5656 26.5671 38.6514 26.4764 38.7165L21.8952 42C21.7901 42.0752 21.6665 42.12 21.5377 42.1295C21.4089 42.139 21.28 42.1128 21.1651 42.0539C21.0502 41.995 20.9537 41.9055 20.8863 41.7954C20.8188 41.6852 20.783 41.5587 20.7828 41.4295L20.7775 38.141V36.5374L19.3484 37.5818C19.2739 37.6363 19.1893 37.6756 19.0996 37.6974C19.0099 37.7192 18.9167 37.7231 18.8255 37.7089C18.7342 37.6947 18.6467 37.6626 18.5678 37.6146C18.489 37.5665 18.4203 37.5034 18.3659 37.4289C18.3114 37.3543 18.2721 37.2697 18.2503 37.18C18.2286 37.0903 18.2246 36.9971 18.2389 36.9059C18.2675 36.7216 18.3683 36.5563 18.5188 36.4463L18.5187 36.4462ZM8.42188 41.1489V28.831C8.42267 28.1828 8.68056 27.5613 9.13899 27.103C9.59741 26.6446 10.2189 26.3868 10.8672 26.3862H34.1335C34.7817 26.3868 35.4032 26.6446 35.8615 27.103C36.3199 27.5613 36.5777 28.1828 36.5783 28.831V41.1489C36.5776 41.7971 36.3198 42.4185 35.8615 42.8768C35.4031 43.3351 34.7817 43.5929 34.1335 43.5936H10.8672C10.219 43.5929 9.59753 43.3352 9.13911 42.8769C8.6807 42.4187 8.42276 41.7973 8.42188 41.1492V41.1489ZM14.3394 24.9799H30.6607V24.0864H14.3394V24.9799ZM17.1308 22.6802H27.8694V21.4157H17.1308V22.6802ZM14.3555 20.0093H30.6451C31.043 20.009 31.4246 19.8507 31.7059 19.5694C31.9873 19.288 32.1456 18.9065 32.1459 18.5085V9.8847C32.1456 9.48677 31.9873 9.10525 31.7059 8.82387C31.4246 8.54249 31.043 8.38425 30.6451 8.38388H14.3555C13.9576 8.38432 13.5761 8.54257 13.2946 8.82392C13.0132 9.10527 12.8548 9.48675 12.8543 9.8847V18.5085C12.8548 18.9065 13.0132 19.288 13.2946 19.5693C13.5761 19.8507 13.9576 20.0089 14.3555 20.0093ZM10.5944 17.8054H11.4479V10.5878H10.5944C10.394 10.588 10.2019 10.6676 10.0602 10.8092C9.91848 10.9508 9.83875 11.1429 9.8385 11.3432V17.0501C9.83878 17.2504 9.91852 17.4424 10.0602 17.584C10.2019 17.7257 10.394 17.8053 10.5944 17.8054ZM34.4059 10.5878H33.5523V17.8054H34.4059C34.6062 17.8052 34.7982 17.7256 34.9399 17.584C35.0816 17.4424 35.1614 17.2504 35.1617 17.0501V11.3432C35.1614 11.1429 35.0816 10.9509 34.9399 10.8093C34.7983 10.6677 34.6062 10.588 34.4059 10.5878ZM22.5001 3.47018C22.7043 3.47023 22.9039 3.40973 23.0737 3.29633C23.2434 3.18293 23.3758 3.02173 23.4539 2.83311C23.5321 2.64449 23.5526 2.43693 23.5127 2.23668C23.4729 2.03643 23.3746 1.85249 23.2302 1.70812C23.0859 1.56375 22.9019 1.46544 22.7017 1.42562C22.5014 1.3858 22.2939 1.40626 22.1052 1.48442C21.9166 1.56258 21.7554 1.69492 21.642 1.8647C21.5286 2.03448 21.4681 2.23408 21.4682 2.43825C21.4686 2.7118 21.5775 2.97402 21.7709 3.16744C21.9643 3.36087 22.2266 3.46973 22.5001 3.47018ZM7.01562 41.1489V28.831C7.01688 27.8099 7.42309 26.8311 8.14513 26.1091C8.86717 25.3871 9.8461 24.9811 10.8672 24.9799H12.9335V23.3833C12.9335 23.1968 13.0076 23.018 13.1394 22.8861C13.2713 22.7542 13.4501 22.6802 13.6366 22.6802H15.7249V21.4157H14.3555C13.707 21.4149 13.0773 21.1976 12.5663 20.7984C12.0552 20.3991 11.692 19.8408 11.5343 19.2117H10.5938C10.0207 19.211 9.47124 18.9831 9.06594 18.5778C8.66063 18.1726 8.43256 17.6232 8.43172 17.0501V11.3432C8.43253 10.7701 8.6606 10.2207 9.06591 9.81545C9.47122 9.41023 10.0207 9.18227 10.5938 9.18157H11.5343C11.6921 8.55257 12.0553 7.99421 12.5663 7.59497C13.0774 7.19574 13.707 6.97845 14.3555 6.97754H21.797V4.77227C21.2368 4.60355 20.7559 4.239 20.4422 3.74517C20.1284 3.25134 20.0027 2.66115 20.088 2.08233C20.1732 1.5035 20.4638 0.974643 20.9066 0.59227C21.3495 0.209898 21.915 -0.000488281 22.5001 -0.000488281C23.0852 -0.000488281 23.6507 0.209898 24.0936 0.59227C24.5364 0.974643 24.827 1.5035 24.9122 2.08233C24.9975 2.66115 24.8718 3.25134 24.5581 3.74517C24.2443 4.239 23.7634 4.60355 23.2032 4.77227V6.97745H30.6451C31.2934 6.97847 31.9229 7.19582 32.4337 7.59506C32.9446 7.9943 33.3075 8.5526 33.4652 9.18148H34.4056C34.9787 9.18218 35.5282 9.41014 35.9335 9.81537C36.3388 10.2206 36.5669 10.77 36.5677 11.3432V17.05C36.567 17.6232 36.339 18.1727 35.9336 18.578C35.5283 18.9833 34.9788 19.2114 34.4056 19.2121H33.4652C33.3077 19.8411 32.9448 20.3995 32.4339 20.7987C31.923 21.198 31.2935 21.4152 30.6451 21.416H29.2758V22.6805H31.3641C31.5505 22.6807 31.7292 22.7548 31.8611 22.8866C31.9929 23.0185 32.067 23.1972 32.0672 23.3836V24.9803H34.1335C35.1545 24.9815 36.1333 25.3876 36.8553 26.1096C37.5772 26.8315 37.9834 27.8104 37.9846 28.8314V41.1492C37.9831 42.1701 37.5769 43.1488 36.855 43.8706C36.1331 44.5924 35.1544 44.9985 34.1335 44.9998H10.8672C9.84612 44.9986 8.86724 44.5925 8.14521 43.8705C7.42318 43.1486 7.01695 42.1698 7.01562 41.1487V41.1489ZM29.1394 11.9327C29.1395 12.1988 29.0606 12.4589 28.9128 12.6802C28.7651 12.9015 28.555 13.074 28.3092 13.1758C28.0634 13.2777 27.7929 13.3044 27.5319 13.2525C27.2709 13.2006 27.0312 13.0725 26.843 12.8843C26.6549 12.6962 26.5267 12.4565 26.4749 12.1955C26.423 11.9345 26.4496 11.664 26.5515 11.4182C26.6534 11.1724 26.8259 10.9623 27.0471 10.8145C27.2684 10.6667 27.5286 10.5879 27.7946 10.588C28.1511 10.5886 28.4928 10.7304 28.7449 10.9825C28.997 11.2345 29.1388 11.5763 29.1394 11.9327ZM30.5456 11.9327C30.5457 12.4769 30.3844 13.009 30.0821 13.4615C29.7798 13.914 29.3501 14.2668 28.8473 14.4751C28.3446 14.6834 27.7913 14.7379 27.2575 14.6317C26.7238 14.5256 26.2335 14.2635 25.8487 13.8787C25.4638 13.4939 25.2018 13.0036 25.0956 12.4698C24.9895 11.9361 25.044 11.3828 25.2523 10.88C25.4606 10.3773 25.8133 9.94756 26.2659 9.64526C26.7184 9.34297 27.2504 9.18166 27.7946 9.18175C28.524 9.18266 29.2232 9.47278 29.7389 9.98849C30.2546 10.5042 30.5447 11.2034 30.5456 11.9327ZM18.5512 11.9327C18.5513 12.1988 18.4725 12.4589 18.3247 12.6802C18.177 12.9014 17.9669 13.0739 17.7211 13.1758C17.4754 13.2777 17.2049 13.3044 16.9439 13.2525C16.683 13.2007 16.4432 13.0726 16.2551 12.8846C16.0669 12.6965 15.9387 12.4568 15.8868 12.1959C15.8348 11.9349 15.8614 11.6644 15.9632 11.4186C16.0649 11.1728 16.2373 10.9627 16.4585 10.8148C16.6797 10.667 16.9398 10.588 17.2058 10.588C17.5624 10.5884 17.9042 10.7302 18.1564 10.9823C18.4086 11.2344 18.5506 11.5762 18.5512 11.9327ZM17.2058 14.6844C16.6617 14.6844 16.1298 14.523 15.6773 14.2206C15.2249 13.9183 14.8722 13.4886 14.664 12.9858C14.4558 12.4831 14.4013 11.9299 14.5075 11.3962C14.6136 10.8625 14.8757 10.3723 15.2604 9.98747C15.6452 9.60269 16.1354 9.34064 16.6691 9.23446C17.2028 9.12828 17.756 9.18274 18.2588 9.39095C18.7615 9.59916 19.1913 9.95178 19.4936 10.4042C19.796 10.8566 19.9574 11.3886 19.9574 11.9327C19.9567 12.6623 19.6666 13.3617 19.1507 13.8776C18.6348 14.3935 17.9354 14.6836 17.2058 14.6844ZM26.1619 18.5085C26.1619 18.695 26.0878 18.8738 25.956 19.0057C25.8241 19.1376 25.6453 19.2116 25.4588 19.2116H19.5416C19.3551 19.2116 19.1763 19.1376 19.0444 19.0057C18.9126 18.8738 18.8385 18.695 18.8385 18.5085C18.8385 18.322 18.9126 18.1432 19.0444 18.0113C19.1763 17.8795 19.3551 17.8054 19.5416 17.8054H25.4586C25.6451 17.8054 25.8239 17.8795 25.9558 18.0113C26.0876 18.1432 26.1617 18.322 26.1617 18.5085H26.1619Z" fill="#FFBE16"/>
</g>
<defs>
<clipPath id="clip0_0_33291">
<rect width="45" height="45" fill="white"/>
</clipPath>
</defs>
</svg>
