<svg width="40" height="41" viewBox="0 0 40 41" fill="none" xmlns="http://www.w3.org/2000/svg">
<path fill-rule="evenodd" clip-rule="evenodd" d="M8.84109 16.3597C8.77241 16.4286 8.69082 16.4832 8.601 16.5204C8.51118 16.5577 8.4149 16.5769 8.31766 16.5769C8.22042 16.5769 8.12413 16.5577 8.03431 16.5204C7.94449 16.4832 7.8629 16.4286 7.79422 16.3597C7.69067 16.2562 7.62015 16.1243 7.59158 15.9807C7.563 15.8371 7.57766 15.6882 7.63369 15.5529C7.68971 15.4176 7.7846 15.302 7.90635 15.2207C8.02809 15.1393 8.17123 15.0959 8.31766 15.0959C8.46408 15.0959 8.60722 15.1393 8.72896 15.2207C8.85071 15.302 8.9456 15.4176 9.00163 15.5529C9.05766 15.6882 9.07231 15.8371 9.04374 15.9807C9.01516 16.1243 8.94464 16.2562 8.84109 16.3597ZM6.91 14.4284C6.63161 14.7068 6.44203 15.0615 6.36523 15.4477C6.28843 15.8339 6.32787 16.2342 6.47855 16.5979C6.62924 16.9617 6.8844 17.2726 7.21178 17.4913C7.53916 17.71 7.92404 17.8268 8.31777 17.8268C8.7115 17.8268 9.09639 17.71 9.42377 17.4913C9.75115 17.2726 10.0063 16.9617 10.157 16.5979C10.3077 16.2342 10.3471 15.8339 10.2703 15.4477C10.1935 15.0615 10.0039 14.7068 9.72555 14.4284C9.3514 14.0565 8.8453 13.8478 8.31777 13.8478C7.79025 13.8478 7.28415 14.0565 6.91 14.4284ZM10.8974 13.2281C10.2098 12.5541 9.28578 12.1759 8.32294 12.1745C7.3601 12.1732 6.43496 12.5487 5.74547 13.2207C5.68696 13.2783 5.61768 13.3238 5.54158 13.3547C5.46549 13.3855 5.38407 13.401 5.30197 13.4004C5.21987 13.3997 5.13871 13.3829 5.06311 13.3509C4.98751 13.3189 4.91896 13.2723 4.86137 13.2138C4.80378 13.1552 4.75827 13.086 4.72745 13.0099C4.69664 12.9338 4.68111 12.8523 4.68176 12.7703C4.68241 12.6882 4.69922 12.607 4.73124 12.5314C4.76326 12.4558 4.80985 12.3872 4.86836 12.3296C5.79246 11.4284 7.0327 10.9248 8.32351 10.9267C9.61432 10.9285 10.8531 11.4357 11.7746 12.3396C11.8924 12.4559 11.9592 12.6142 11.9603 12.7798C11.9614 12.9454 11.8966 13.1046 11.7803 13.2224C11.7227 13.2807 11.6542 13.3272 11.5787 13.359C11.5031 13.3909 11.4221 13.4075 11.3401 13.4081C11.1745 13.4091 11.0153 13.3444 10.8975 13.2281H10.8974ZM12.9648 11.1578C13.0224 11.2154 13.0908 11.2611 13.166 11.2923C13.2413 11.3235 13.322 11.3395 13.4034 11.3394C13.5275 11.34 13.6489 11.3037 13.7522 11.235C13.8555 11.1663 13.936 11.0684 13.9834 10.9538C14.0309 10.8392 14.0431 10.713 14.0185 10.5914C13.994 10.4698 13.9338 10.3583 13.8456 10.2711C13.1204 9.54702 12.2595 8.9731 11.3123 8.58213C10.365 8.19115 9.34993 7.9908 8.32516 7.99254H8.31773C7.29417 7.98977 6.28009 8.18877 5.33348 8.57817C4.38686 8.96756 3.52628 9.53971 2.80094 10.2619C2.74179 10.3193 2.6946 10.3879 2.66208 10.4636C2.62957 10.5393 2.61238 10.6208 2.6115 10.7032C2.61063 10.7856 2.62609 10.8674 2.65698 10.9438C2.68788 11.0202 2.73361 11.0897 2.79153 11.1484C2.84945 11.207 2.9184 11.2536 2.99442 11.2855C3.07044 11.3173 3.15202 11.3338 3.23444 11.334C3.31687 11.3341 3.3985 11.3179 3.47464 11.2864C3.55078 11.2548 3.61991 11.2085 3.67805 11.15C4.91665 9.93108 6.58523 9.24854 8.32305 9.25001C10.0609 9.25147 11.7283 9.93673 12.9648 11.1578ZM0.726562 9.07707C0.610171 8.95925 0.545175 8.80013 0.54579 8.63452C0.546405 8.4689 0.612581 8.31027 0.729844 8.19332C1.72659 7.19838 2.90996 6.41002 4.21207 5.87343C5.51417 5.33685 6.90941 5.06261 8.31773 5.06645H8.32516C9.73421 5.06325 11.13 5.33868 12.4322 5.8769C13.7344 6.41511 14.9174 7.20548 15.913 8.20254C15.9722 8.26014 16.0194 8.3289 16.0519 8.40486C16.0843 8.48081 16.1014 8.56245 16.102 8.64504C16.1027 8.72762 16.087 8.80953 16.0558 8.886C16.0246 8.96248 15.9786 9.03201 15.9203 9.09057C15.8621 9.14913 15.7928 9.19555 15.7165 9.22715C15.6402 9.25876 15.5584 9.27491 15.4758 9.27468C15.3932 9.27445 15.3115 9.25784 15.2353 9.22581C15.1592 9.19378 15.0902 9.14697 15.0323 9.08809C11.336 5.40731 5.3143 5.40363 1.61039 9.08027C1.49265 9.19683 1.33349 9.26195 1.16781 9.26135C1.00214 9.26075 0.843457 9.19448 0.726562 9.07707ZM4.71734 28.8735H2.45453C2.28877 28.8735 2.1298 28.8076 2.01259 28.6904C1.89538 28.5732 1.82953 28.4142 1.82953 28.2485C1.82953 28.0827 1.89538 27.9237 2.01259 27.8065C2.1298 27.6893 2.28877 27.6235 2.45453 27.6235H4.71734C4.8831 27.6235 5.04208 27.6893 5.15929 27.8065C5.2765 27.9237 5.34234 28.0827 5.34234 28.2485C5.34234 28.4142 5.2765 28.5732 5.15929 28.6904C5.04208 28.8076 4.8831 28.8735 4.71734 28.8735ZM1.83172 26.4556C1.83172 26.2902 1.89727 26.1316 2.014 26.0144C2.13074 25.8973 2.28915 25.8312 2.45453 25.8306H4.71734C4.8831 25.8306 5.04208 25.8964 5.15929 26.0136C5.2765 26.1309 5.34234 26.2898 5.34234 26.4556C5.34234 26.6213 5.2765 26.7803 5.15929 26.8975C5.04208 27.0147 4.8831 27.0806 4.71734 27.0806H2.45453C2.28915 27.08 2.13074 27.0139 2.014 26.8968C1.89727 26.7796 1.83172 26.621 1.83172 26.4556ZM1.83172 24.6627C1.83172 24.4973 1.89727 24.3387 2.014 24.2215C2.13074 24.1044 2.28915 24.0383 2.45453 24.0377H4.71734C4.8831 24.0377 5.04208 24.1035 5.15929 24.2208C5.2765 24.338 5.34234 24.4969 5.34234 24.6627C5.34234 24.8285 5.2765 24.9874 5.15929 25.1046C5.04208 25.2218 4.8831 25.2877 4.71734 25.2877H2.45453C2.28915 25.2871 2.13074 25.221 2.014 25.1039C1.89727 24.9867 1.83172 24.8281 1.83172 24.6627ZM36.027 17.8962C35.9102 17.7788 35.8446 17.62 35.8446 17.4543C35.8446 17.2887 35.9102 17.1298 36.027 17.0125L37.4531 15.5871C37.5704 15.4698 37.7294 15.4039 37.8952 15.4038C38.061 15.4038 38.2201 15.4696 38.3374 15.5869C38.4547 15.7041 38.5206 15.8631 38.5206 16.029C38.5207 16.1948 38.4548 16.3538 38.3376 16.4711L36.9114 17.8962C36.8535 17.9545 36.7846 18.0007 36.7087 18.0322C36.6328 18.0636 36.5514 18.0797 36.4692 18.0793C36.3034 18.0793 36.1443 18.0134 36.027 17.8962H36.027ZM21.8758 16.3875C21.8178 16.3294 21.7717 16.2605 21.7404 16.1846C21.709 16.1087 21.6928 16.0274 21.6929 15.9453C21.6929 15.8633 21.7091 15.782 21.7406 15.7061C21.772 15.6303 21.8181 15.5614 21.8762 15.5034C21.9342 15.4454 22.0032 15.3994 22.079 15.368C22.1549 15.3366 22.2362 15.3205 22.3183 15.3205C22.4004 15.3205 22.4817 15.3367 22.5575 15.3682C22.6333 15.3996 22.7022 15.4457 22.7602 15.5038L24.1827 16.9289C24.2701 17.0163 24.3296 17.1277 24.3537 17.2489C24.3778 17.3702 24.3654 17.4958 24.3181 17.61C24.2708 17.7242 24.1906 17.8218 24.0878 17.8905C23.985 17.9592 23.8642 17.9958 23.7405 17.9957C23.5749 17.995 23.4161 17.9294 23.2983 17.8129L21.8758 16.3875ZM29.4969 14.7767V12.7611C29.4969 12.5949 29.5629 12.4356 29.6804 12.3181C29.7979 12.2006 29.9572 12.1346 30.1234 12.1346C30.2895 12.1346 30.4489 12.2006 30.5664 12.3181C30.6838 12.4356 30.7498 12.5949 30.7498 12.7611V14.7767C30.7498 14.9428 30.6838 15.1022 30.5664 15.2197C30.4489 15.3372 30.2895 15.4032 30.1234 15.4032C29.9572 15.4032 29.7979 15.3372 29.6804 15.2197C29.5629 15.1022 29.4969 14.9428 29.4969 14.7767ZM30.1234 21.8001C30.5063 21.8004 30.8806 21.9143 31.1989 22.1273C31.5172 22.3403 31.7652 22.6429 31.9115 22.9968C32.0579 23.3507 32.096 23.7401 32.0211 24.1157C31.9462 24.4913 31.7617 24.8362 31.4907 25.1069C31.2198 25.3776 30.8748 25.562 30.4991 25.6366C30.1235 25.7112 29.7341 25.6728 29.3803 25.5262C29.0265 25.3796 28.7241 25.1314 28.5113 24.8129C28.2986 24.4945 28.185 24.1201 28.1849 23.7372C28.1857 23.2234 28.3902 22.731 28.7536 22.3678C29.117 22.0047 29.6096 21.8005 30.1234 21.8001ZM30.1234 26.9238C30.7536 26.9237 31.3697 26.7366 31.8937 26.3864C32.4177 26.0361 32.8261 25.5383 33.0672 24.956C33.3083 24.3736 33.3713 23.7329 33.2483 23.1147C33.1252 22.4966 32.8216 21.9288 32.3759 21.4832C31.9302 21.0375 31.3623 20.7341 30.7441 20.6112C30.1259 20.4883 29.4851 20.5515 28.9029 20.7928C28.3206 21.034 27.8229 21.4425 27.4728 21.9666C27.1227 22.4907 26.9358 23.1069 26.9359 23.7372C26.937 24.5821 27.2732 25.3921 27.8707 25.9895C28.4683 26.5869 29.2784 26.9229 30.1234 26.9238ZM18.021 24.2527C18.021 24.3762 17.9844 24.497 17.9158 24.5998C17.8472 24.7025 17.7497 24.7826 17.6355 24.83C17.5214 24.8773 17.3958 24.8898 17.2746 24.8658C17.1534 24.8418 17.0421 24.7824 16.9546 24.6952C16.8671 24.6079 16.8075 24.4967 16.7832 24.3755C16.7589 24.2544 16.7711 24.1288 16.8182 24.0145C16.8652 23.9003 16.9451 23.8026 17.0477 23.7337C17.1503 23.6649 17.271 23.628 17.3945 23.6277H17.3982C17.5636 23.6283 17.722 23.6944 17.8387 23.8115C17.9555 23.9287 18.021 24.0873 18.021 24.2527ZM14.5348 24.2527C14.5348 24.3762 14.4981 24.497 14.4295 24.5998C14.3609 24.7025 14.2634 24.7826 14.1493 24.83C14.0352 24.8773 13.9096 24.8898 13.7884 24.8658C13.6672 24.8418 13.5558 24.7824 13.4683 24.6952C13.3809 24.6079 13.3212 24.4967 13.297 24.3755C13.2727 24.2544 13.2848 24.1288 13.3319 24.0145C13.379 23.9003 13.4589 23.8026 13.5615 23.7337C13.664 23.6649 13.7847 23.628 13.9083 23.6277C13.9905 23.6276 14.0719 23.6436 14.1478 23.675C14.2238 23.7063 14.2929 23.7523 14.351 23.8104C14.4092 23.8684 14.4554 23.9374 14.4869 24.0132C14.5184 24.0891 14.5347 24.1705 14.5348 24.2527ZM11.0486 24.2527C11.0489 24.3767 11.0124 24.498 10.9438 24.6012C10.8751 24.7045 10.7774 24.785 10.6629 24.8327C10.5484 24.8803 10.4224 24.893 10.3008 24.869C10.1791 24.845 10.0673 24.7854 9.97954 24.6979C9.89176 24.6103 9.83193 24.4987 9.80762 24.3771C9.78332 24.2555 9.79564 24.1294 9.84301 24.0148C9.89039 23.9003 9.9707 23.8023 10.0738 23.7334C10.1768 23.6645 10.298 23.6277 10.422 23.6277C10.5042 23.6276 10.5856 23.6436 10.6616 23.675C10.7376 23.7063 10.8066 23.7523 10.8648 23.8104C10.923 23.8684 10.9692 23.9373 11.0007 24.0132C11.0323 24.0891 11.0485 24.1705 11.0486 24.2527ZM38.7505 31.2929V21.6183C38.7504 21.3544 38.6456 21.1012 38.459 20.9145C38.2725 20.7277 38.0194 20.6226 37.7555 20.6222H36.1671C36.7013 21.6587 36.96 22.8151 36.9183 23.9804C36.8766 25.1457 36.5359 26.2807 35.9289 27.2763C35.322 28.2719 34.4692 29.0948 33.4525 29.6657C32.4358 30.2366 31.2894 30.5365 30.1233 30.5365C28.9573 30.5365 27.8108 30.2366 26.7941 29.6657C25.7774 29.0948 24.9247 28.2719 24.3177 27.2763C23.7108 26.2807 23.3701 25.1457 23.3284 23.9804C23.2867 22.8151 23.5453 21.6587 24.0795 20.6222H2.24453C1.98057 20.6226 1.72753 20.7277 1.54098 20.9145C1.35444 21.1012 1.24961 21.3544 1.24953 21.6183V22.0381H3.925C5.09659 22.0381 6.2202 22.5035 7.04864 23.3319C7.87709 24.1604 8.3425 25.284 8.3425 26.4556C8.3425 27.6272 7.87709 28.7508 7.04864 29.5792C6.2202 30.4077 5.09659 30.8731 3.925 30.8731H1.24953V31.2928C1.24961 31.5567 1.35443 31.8099 1.54098 31.9967C1.72753 32.1834 1.98056 32.2886 2.24453 32.2889H37.7555C38.0194 32.2886 38.2725 32.1834 38.459 31.9967C38.6456 31.8099 38.7504 31.5567 38.7505 31.2928V31.2929ZM35.0063 34.4969H31.9141L31.6045 33.5391H35.3195L35.0063 34.4969ZM8.08562 34.4969H4.99367L4.68047 33.5391H8.39516L8.08562 34.4969ZM1.24969 23.2882V29.623H3.925C4.34228 29.6251 4.75586 29.5447 5.14197 29.3864C5.52809 29.2282 5.87913 28.9952 6.17492 28.7009C6.47072 28.4065 6.70545 28.0567 6.86561 27.6713C7.02578 27.286 7.10823 26.8728 7.10823 26.4555C7.10823 26.0383 7.02578 25.6251 6.86561 25.2398C6.70545 24.8544 6.47072 24.5046 6.17492 24.2102C5.87913 23.9159 5.52809 23.6829 5.14197 23.5247C4.75586 23.3664 4.34228 23.286 3.925 23.2881L1.24969 23.2882ZM30.1235 18.1867C29.0257 18.1866 27.9525 18.512 27.0396 19.1219C26.1268 19.7317 25.4153 20.5986 24.9951 21.6128C24.5749 22.627 24.4649 23.7431 24.679 24.8198C24.8931 25.8965 25.4217 26.8856 26.198 27.6619C26.9743 28.4382 27.9633 28.9669 29.04 29.1811C30.1167 29.3953 31.2328 29.2854 32.2471 28.8653C33.2613 28.4452 34.1282 27.7337 34.7381 26.8209C35.348 25.9081 35.6735 24.8349 35.6735 23.7371C35.6716 22.2657 35.0863 20.8551 34.0459 19.8146C33.0055 18.7741 31.5949 18.1887 30.1235 18.1867ZM37.7556 19.3726C38.3509 19.3734 38.9215 19.6103 39.3422 20.0313C39.763 20.4523 39.9996 21.0231 40 21.6183V31.2928C39.9997 31.8881 39.7632 32.459 39.3424 32.8801C38.9216 33.3012 38.3509 33.5382 37.7556 33.5389H36.6352L36.0566 35.3149C36.0157 35.4401 35.9363 35.5493 35.8298 35.6268C35.7233 35.7044 35.595 35.7463 35.4633 35.7468H31.4609C31.3289 35.7474 31.2002 35.7059 31.0934 35.6282C30.9867 35.5505 30.9076 35.4407 30.8677 35.3149L30.2891 33.5389H9.71094L9.13234 35.3149C9.09239 35.4407 9.01329 35.5505 8.90656 35.6282C8.79983 35.7059 8.67107 35.7474 8.53906 35.7468H4.53672C4.40497 35.7463 4.2767 35.7044 4.17018 35.6268C4.06367 35.5493 3.98432 35.4401 3.94344 35.3149L3.36484 33.5389H2.24453C1.64918 33.5382 1.07845 33.3013 0.657628 32.8802C0.236807 32.459 0.000289317 31.8881 0 31.2928L0 21.6183C0.000309975 21.023 0.236834 20.4521 0.657651 20.031C1.07847 19.6098 1.64919 19.3729 2.24453 19.3721H24.7982C24.834 19.3722 24.8698 19.3755 24.9051 19.3818C25.5418 18.6173 26.3386 18.0021 27.2393 17.5795C28.14 17.157 29.1226 16.9375 30.1174 16.9366C31.1123 16.9357 32.0952 17.1534 32.9967 17.5742C33.8982 17.9951 34.6962 18.6089 35.3343 19.3721L37.7556 19.3726Z" fill="#0044EB"/>
</svg>
