<svg width="40" height="31" viewBox="0 0 40 31" fill="none" xmlns="http://www.w3.org/2000/svg">
<path fill-rule="evenodd" clip-rule="evenodd" d="M19.5638 10.4077V8.22961C19.5638 8.06385 19.6297 7.90488 19.7469 7.78767C19.8641 7.67046 20.0231 7.60461 20.1888 7.60461C20.3546 7.60461 20.5136 7.67046 20.6308 7.78767C20.748 7.90488 20.8138 8.06385 20.8138 8.22961V10.4077C20.8138 10.5735 20.748 10.7325 20.6308 10.8497C20.5136 10.9669 20.3546 11.0327 20.1888 11.0327C20.0231 11.0327 19.8641 10.9669 19.7469 10.8497C19.6297 10.7325 19.5638 10.5735 19.5638 10.4077ZM13.1608 7.63047C13.1591 7.61154 13.1628 7.59252 13.1713 7.57554C13.1798 7.55855 13.1929 7.54428 13.2091 7.5343C13.4812 7.33341 13.793 7.19279 14.1238 7.1218C14.4545 7.05081 14.7966 7.05107 15.1272 7.12258V11.7758C14.9615 11.8111 14.7925 11.8289 14.623 11.8289C14.1138 11.8304 13.6177 11.667 13.209 11.3632C13.1928 11.3535 13.1797 11.3394 13.1711 11.3225C13.1626 11.3056 13.159 11.2867 13.1607 11.2679L13.1608 7.63047ZM21.5889 9.44914C21.5891 8.84528 21.416 8.25405 21.0903 7.74559C20.7645 7.23713 20.2997 6.83279 19.7511 6.58055C19.2024 6.32831 18.5929 6.23875 17.9949 6.3225C17.3969 6.40625 16.8354 6.65979 16.3772 7.05305V11.8445C16.9481 12.3373 17.6776 12.6078 18.4319 12.6062C18.761 12.6063 19.088 12.5552 19.4014 12.4547C19.4952 12.4245 19.5947 12.4169 19.692 12.4324C19.7893 12.448 19.8815 12.4863 19.9612 12.5442C20.0408 12.6022 20.1057 12.6781 20.1504 12.7659C20.1952 12.8536 20.2186 12.9507 20.2188 13.0492V16.6344H21.589L21.5889 9.44914ZM21.5288 19.9625H20.278C20.2624 19.9617 20.2476 19.9551 20.2366 19.944C20.2257 19.9328 20.2192 19.918 20.2187 19.9023V19.582H21.5889V19.9023C21.5883 19.9181 21.5818 19.9331 21.5707 19.9442C21.5595 19.9554 21.5446 19.9619 21.5288 19.9625ZM21.5889 18.332H20.2188V17.8844H21.589L21.5889 18.332ZM12.4653 12.3687C12.9249 12.7083 13.4582 12.9345 14.0217 13.029C14.5853 13.1234 15.1632 13.0835 15.7084 12.9124C16.1648 13.2719 16.6878 13.5374 17.2473 13.6938C17.8068 13.8501 18.3917 13.8942 18.9684 13.8234V19.9023C18.9687 20.2496 19.1068 20.5826 19.3523 20.8282C19.5978 21.0738 19.9308 21.212 20.278 21.2124H21.5288C21.8762 21.2121 22.2092 21.074 22.4549 20.8284C22.7005 20.5827 22.8386 20.2497 22.8389 19.9023V9.44922C22.8389 8.6222 22.6062 7.81187 22.1674 7.11086C21.7286 6.40986 21.1014 5.84647 20.3575 5.48513C19.6136 5.12378 18.7831 4.97905 17.9608 5.06749C17.1385 5.15593 16.3577 5.47396 15.7077 5.98523C15.1625 5.81423 14.5847 5.77441 14.0213 5.86903C13.4579 5.96364 12.9248 6.19001 12.4655 6.52969C12.2927 6.65643 12.1524 6.82224 12.056 7.01356C11.9596 7.20489 11.9099 7.41631 11.9108 7.63055V11.268C11.9099 11.4822 11.9596 11.6936 12.056 11.885C12.1524 12.0763 12.2927 12.2421 12.4655 12.3688L12.4653 12.3687ZM35.4443 27.3094C35.4443 27.1437 35.51 26.9849 35.6271 26.8677C35.7442 26.7505 35.903 26.6846 36.0686 26.6844H36.0701C36.1937 26.6845 36.3144 26.7213 36.4171 26.7901C36.5198 26.8589 36.5998 26.9565 36.6469 27.0707C36.6941 27.185 36.7064 27.3106 36.6822 27.4318C36.658 27.553 36.5984 27.6643 36.511 27.7516C36.4235 27.8389 36.3122 27.8984 36.1909 27.9224C36.0697 27.9465 35.9441 27.9341 35.8299 27.8867C35.7158 27.8394 35.6182 27.7593 35.5496 27.6565C35.4809 27.5538 35.4443 27.433 35.4443 27.3094ZM32.8982 27.3094C32.8982 27.1437 32.9639 26.9849 33.081 26.8677C33.198 26.7505 33.3568 26.6846 33.5224 26.6844H33.5239C33.6475 26.6845 33.7683 26.7213 33.8709 26.79C33.9736 26.8588 34.0536 26.9565 34.1008 27.0707C34.148 27.1849 34.1603 27.3105 34.1361 27.4317C34.1119 27.5529 34.0523 27.6642 33.9649 27.7516C33.8775 27.8389 33.7661 27.8984 33.6449 27.9224C33.5237 27.9465 33.398 27.9341 33.2839 27.8867C33.1697 27.8394 33.0721 27.7593 33.0035 27.6565C32.9348 27.5538 32.8982 27.433 32.8982 27.3094ZM30.352 27.3094C30.352 27.1437 30.4178 26.9849 30.5348 26.8677C30.6519 26.7505 30.8107 26.6846 30.9763 26.6844H30.9778C31.1014 26.6845 31.2222 26.7213 31.3248 26.7901C31.4275 26.8589 31.5075 26.9565 31.5547 27.0707C31.6019 27.185 31.6141 27.3106 31.5899 27.4318C31.5657 27.553 31.5061 27.6643 31.4187 27.7516C31.3313 27.8389 31.2199 27.8984 31.0987 27.9224C30.9775 27.9465 30.8518 27.9341 30.7377 27.8867C30.6235 27.8394 30.5259 27.7593 30.4573 27.6565C30.3887 27.5538 30.352 27.433 30.352 27.3094ZM9.64836 27.3094C9.64844 27.433 9.61186 27.5539 9.54325 27.6568C9.47465 27.7596 9.37709 27.8399 9.26291 27.8873C9.14873 27.9347 9.02304 27.9473 8.90175 27.9233C8.78045 27.8993 8.66897 27.8399 8.58141 27.7526C8.49385 27.6653 8.43414 27.5541 8.40981 27.4328C8.38548 27.3116 8.39763 27.1859 8.44472 27.0716C8.49182 26.9572 8.57174 26.8594 8.6744 26.7905C8.77706 26.7216 8.89784 26.6847 9.02148 26.6844H9.02336C9.18912 26.6844 9.34809 26.7502 9.4653 26.8674C9.58251 26.9846 9.64836 27.1436 9.64836 27.3094ZM7.10219 27.3094C7.10219 27.4329 7.06558 27.5537 6.99698 27.6564C6.92838 27.7592 6.83088 27.8393 6.71678 27.8866C6.60268 27.934 6.4771 27.9465 6.35592 27.9225C6.23473 27.8985 6.12336 27.8392 6.03588 27.7519C5.9484 27.6647 5.88873 27.5535 5.86442 27.4324C5.8401 27.3113 5.85222 27.1857 5.89925 27.0714C5.94628 26.9572 6.02611 26.8595 6.12865 26.7906C6.23119 26.7217 6.35185 26.6847 6.47539 26.6844H6.47719C6.64295 26.6844 6.80192 26.7502 6.91913 26.8674C7.03634 26.9846 7.10219 27.1436 7.10219 27.3094ZM4.55609 27.3094C4.55617 27.433 4.51959 27.5539 4.45096 27.6568C4.38234 27.7597 4.28476 27.8399 4.17055 27.8873C4.05635 27.9348 3.93065 27.9473 3.80934 27.9233C3.68803 27.8993 3.57656 27.8398 3.48901 27.7525C3.40147 27.6652 3.34178 27.5538 3.31749 27.4326C3.29321 27.3113 3.30541 27.1856 3.35257 27.0713C3.39972 26.957 3.47971 26.8592 3.58242 26.7903C3.68513 26.7215 3.80595 26.6846 3.92961 26.6844H3.93109C4.09685 26.6844 4.25583 26.7502 4.37304 26.8674C4.49025 26.9846 4.55609 27.1436 4.55609 27.3094ZM38.7496 27.3094V25.7828H25.4171C25.4138 25.7922 25.4116 25.8007 25.4083 25.8094L24.7147 27.5711C24.6688 27.6878 24.5888 27.788 24.4851 27.8587C24.3815 27.9293 24.259 27.9672 24.1335 27.9673H15.8716C15.7461 27.9672 15.6234 27.9294 15.5197 27.8588C15.4159 27.7881 15.3357 27.6879 15.2897 27.5711L14.5914 25.7969C14.5895 25.7923 14.588 25.7875 14.5866 25.7829H1.25V27.3095C1.25045 27.7142 1.41143 28.1022 1.6976 28.3883C1.98377 28.6745 2.37178 28.8355 2.77648 28.8359H37.2232C37.628 28.8356 38.0161 28.6746 38.3023 28.3884C38.5886 28.1022 38.7496 27.7142 38.75 27.3094H38.7496ZM24.0749 25.7828L23.7077 26.7171H16.2969L15.9297 25.7828H24.0749ZM2.59297 2.73352V24.5327H37.4067V2.73352C37.4065 2.53294 37.3268 2.34062 37.185 2.19872C37.0433 2.05681 36.851 1.9769 36.6505 1.97648H3.34914C3.14853 1.97677 2.95623 2.05665 2.81446 2.19859C2.67269 2.34052 2.59303 2.53291 2.59297 2.73352ZM39.375 24.5327H38.6567V2.73352C38.6563 2.20149 38.4448 1.69138 38.0687 1.31511C37.6925 0.938851 37.1825 0.727183 36.6505 0.726562H3.34914C2.81713 0.727204 2.30709 0.938878 1.93097 1.31514C1.55484 1.69139 1.34335 2.2015 1.34289 2.73352V24.5327H0.625C0.45924 24.5327 0.300269 24.5986 0.183058 24.7158C0.065848 24.833 0 24.992 0 25.1577L0 27.3093C0.0007032 28.0455 0.293446 28.7513 0.813981 29.2718C1.33452 29.7924 2.04032 30.0852 2.77648 30.0859H37.2232C37.9594 30.0852 38.6652 29.7924 39.1858 29.2719C39.7064 28.7514 39.9992 28.0456 40 27.3094V25.1578C39.9999 24.9921 39.934 24.8332 39.8168 24.716C39.6996 24.5988 39.5407 24.5329 39.375 24.5328V24.5327ZM35.0632 22.189V4.32031H4.93641V22.1891L35.0632 22.189ZM35.6882 3.07016H4.31141C4.14565 3.07016 3.98667 3.136 3.86946 3.25321C3.75225 3.37042 3.68641 3.5294 3.68641 3.69516V22.8141C3.68641 22.9798 3.75225 23.1388 3.86946 23.256C3.98667 23.3732 4.14565 23.4391 4.31141 23.4391H35.6883C35.7704 23.4391 35.8517 23.423 35.9275 23.3916C36.0034 23.3603 36.0723 23.3142 36.1304 23.2562C36.1884 23.1981 36.2345 23.1292 36.2659 23.0533C36.2972 22.9775 36.3134 22.8962 36.3133 22.8141V3.69531C36.3133 3.61322 36.2972 3.53192 36.2658 3.45606C36.2344 3.38021 36.1884 3.31128 36.1304 3.25323C36.0723 3.19518 36.0034 3.14915 35.9275 3.11776C35.8517 3.08638 35.7704 3.07025 35.6883 3.07031L35.6882 3.07016Z" fill="#0044EB"/>
</svg>
