<svg width="40" height="41" viewBox="0 0 40 41" fill="none" xmlns="http://www.w3.org/2000/svg">
<g clip-path="url(#clip0_0_32376)">
<path fill-rule="evenodd" clip-rule="evenodd" d="M26.5929 8.79679C26.7943 8.79664 26.9928 8.84518 27.1715 8.93827L20 14.182L12.8285 8.93827C13.0072 8.84518 13.2057 8.79664 13.4071 8.79679H26.5929ZM27.857 19.5634V10.0594C27.857 10.036 27.8533 10.0126 27.8533 9.98913L20.3795 15.4523C20.344 15.4796 20.3057 15.5032 20.2653 15.5226C20.1821 15.5613 20.0914 15.5813 19.9997 15.5812C19.9079 15.5813 19.8172 15.5613 19.7341 15.5226C19.6933 15.5037 19.655 15.4801 19.6198 15.4523L12.1461 9.98976C12.1461 10.0125 12.1424 10.036 12.1424 10.0594V19.5634C12.1431 19.8982 12.2766 20.2192 12.5135 20.4559C12.7505 20.6925 13.0716 20.8256 13.4065 20.8259H26.5929C26.9278 20.8256 27.2489 20.6925 27.4859 20.4559C27.7228 20.2192 27.8563 19.8982 27.857 19.5634ZM13.4071 22.0758H26.5929C27.2591 22.0751 27.8978 21.8101 28.369 21.3392C28.8401 20.8682 29.1053 20.2296 29.1063 19.5634V10.0594C29.1053 9.3932 28.8402 8.75452 28.3691 8.28348C27.8979 7.81245 27.2591 7.54751 26.5929 7.54679H13.4071C12.7408 7.54739 12.102 7.81227 11.6308 8.28332C11.1596 8.75437 10.8946 9.3931 10.8938 10.0594V19.5633C10.8947 20.2295 11.1598 20.8681 11.631 21.3391C12.1022 21.8101 12.7409 22.075 13.4071 22.0757V22.0758ZM20.6265 28.2055C20.6268 28.3295 20.5903 28.4508 20.5216 28.554C20.453 28.6572 20.3552 28.7377 20.2408 28.7854C20.1263 28.833 20.0003 28.8457 19.8787 28.8217C19.7571 28.7976 19.6453 28.7381 19.5575 28.6505C19.4698 28.563 19.41 28.4514 19.3857 28.3298C19.3614 28.2082 19.3737 28.0822 19.4211 27.9676C19.4684 27.8531 19.5487 27.7551 19.6518 27.6862C19.7548 27.6173 19.876 27.5805 20 27.5805C20.1659 27.5804 20.3252 27.6461 20.4426 27.7633C20.5601 27.8805 20.6263 28.0396 20.6265 28.2055ZM37.8921 29.3164C38.1197 29.3157 38.3378 29.2249 38.4987 29.0639C38.6596 28.9028 38.7502 28.6847 38.7508 28.457V27.0953H1.24945V28.457C1.24999 28.6847 1.34061 28.9028 1.5015 29.0639C1.6624 29.2249 1.88049 29.3157 2.10812 29.3164H37.8921ZM24.0687 34.3578H15.9315C16.5146 33.1459 16.9655 31.8748 17.2766 30.5664H22.7234C23.0345 31.8748 23.4854 33.1459 24.0685 34.3578H24.0687ZM26.5158 37.0351H13.4844C13.4975 36.6527 13.6584 36.2902 13.9333 36.024C14.2083 35.7578 14.5757 35.6086 14.9584 35.6078H25.0414C25.4241 35.6086 25.7916 35.7578 26.0665 36.024C26.3415 36.2902 26.5024 36.6527 26.5155 37.0351H26.5158ZM2.10812 3.77733C1.88045 3.77791 1.66227 3.86866 1.50134 4.02972C1.34042 4.19078 1.24985 4.40903 1.24945 4.63671V25.8454H38.7505V4.63663C38.7502 4.40895 38.6596 4.1907 38.4987 4.02964C38.3377 3.86858 38.1196 3.77783 37.8919 3.77726L2.10812 3.77733ZM37.8919 2.52733H2.10812C1.54914 2.52839 1.01336 2.75099 0.618206 3.14637C0.22305 3.54174 0.000743361 4.07764 0 4.63663L0 28.4569C0.000784377 29.0159 0.22308 29.5518 0.618191 29.9471C1.0133 30.3425 1.54901 30.5652 2.10797 30.5663H15.9905C15.6478 31.8948 15.1532 33.1793 14.5163 34.3944C13.879 34.4999 13.2998 34.8279 12.8815 35.32C12.4631 35.8122 12.2328 36.4368 12.2315 37.0827V37.6601C12.2315 37.7423 12.2478 37.8236 12.2793 37.8995C12.3108 37.9754 12.357 38.0444 12.4152 38.1024C12.4734 38.1605 12.5424 38.2065 12.6184 38.2378C12.6944 38.2692 12.7758 38.2852 12.858 38.2851H27.142C27.2242 38.2852 27.3056 38.2692 27.3816 38.2378C27.4576 38.2065 27.5266 38.1605 27.5848 38.1024C27.643 38.0444 27.6892 37.9754 27.7207 37.8995C27.7522 37.8236 27.7685 37.7423 27.7685 37.6601V37.0827C27.7671 36.4367 27.5367 35.8121 27.1184 35.3199C26.7002 34.8276 26.121 34.4994 25.4837 34.3937V34.392C24.8463 33.1784 24.3528 31.8944 24.0132 30.5663H37.8919C38.4508 30.5652 38.9865 30.3425 39.3817 29.9471C39.7768 29.5518 39.9991 29.0159 39.9998 28.4569V4.63663C39.9992 4.07763 39.7769 3.54169 39.3818 3.14627C38.9866 2.75085 38.4509 2.5282 37.8919 2.5271V2.52733Z" fill="#0044EB"/>
</g>
<defs>
<clipPath id="clip0_0_32376">
<rect width="40" height="40" fill="white" transform="translate(0 0.40625)"/>
</clipPath>
</defs>
</svg>
